<svg xmlns="http://www.w3.org/2000/svg" width="593.6" height="344" viewBox="0 0 593.6 344" font-family="ui-monospace,SFMono-Regular,Menlo,Monaco,Consolas,monospace" font-size="13" fill="#e6edf3" shape-rendering="crispEdges">
<rect width="593.6" height="344" rx="8" fill="#0d1117"/>
<text x="70.6" y="24.5" textLength="452.4" lengthAdjust="spacingAndGlyphs" xml:space="preserve">Bollinger bands: a centered window's mean ± 2σ (synthetic)</text>
<text x="172" y="40.5" fill="#00cdcd" textLength="15.6" lengthAdjust="spacingAndGlyphs" xml:space="preserve">──</text>
<text x="195.4" y="40.5" textLength="23.4" lengthAdjust="spacingAndGlyphs" xml:space="preserve">±2σ</text>
<text x="234.4" y="40.5" fill="#00cd00" textLength="15.6" lengthAdjust="spacingAndGlyphs" xml:space="preserve">──</text>
<text x="257.8" y="40.5" textLength="85.8" lengthAdjust="spacingAndGlyphs" xml:space="preserve">20-day mean</text>
<text x="359.2" y="40.5" fill="#cd00cd" textLength="15.6" lengthAdjust="spacingAndGlyphs" xml:space="preserve">──</text>
<text x="382.6" y="40.5" textLength="39" lengthAdjust="spacingAndGlyphs" xml:space="preserve">price</text>
<rect x="70.6" y="44" width="23.4" height="8" fill="#00cdcd"/>
<rect x="94" y="52" width="7.8" height="8" fill="#00cdcd"/>
<rect x="257.8" y="52" width="23.4" height="8" fill="#00cdcd"/>
<text x="16" y="56.5" textLength="54.6" lengthAdjust="spacingAndGlyphs" xml:space="preserve">102.5 ┤</text>
<rect x="74.5" y="68" width="3.9" height="8" fill="#cd00cd"/>
<rect x="82.3" y="68" width="3.9" height="8" fill="#cd00cd"/>
<rect x="101.8" y="60" width="3.9" height="8" fill="#00cdcd"/>
<rect x="105.7" y="68" width="3.9" height="8" fill="#00cdcd"/>
<rect x="203.2" y="68" width="7.8" height="8" fill="#00cdcd"/>
<rect x="211" y="68" width="3.9" height="8" fill="#00cdcd"/>
<rect x="214.9" y="60" width="3.9" height="8" fill="#00cdcd"/>
<rect x="218.8" y="60" width="31.2" height="8" fill="#00cdcd"/>
<rect x="250" y="60" width="7.8" height="16" fill="#cd00cd"/>
<rect x="257.8" y="60" width="3.9" height="8" fill="#00cdcd"/>
<rect x="281.2" y="60" width="15.6" height="8" fill="#00cdcd"/>
<rect x="296.8" y="60" width="3.9" height="8" fill="#00cdcd"/>
<rect x="300.7" y="68" width="3.9" height="8" fill="#00cdcd"/>
<text x="62.8" y="72.5" textLength="7.8" lengthAdjust="spacingAndGlyphs" xml:space="preserve">│</text>
<rect x="70.6" y="84" width="3.9" height="8" fill="#cd00cd"/>
<rect x="74.5" y="76" width="3.9" height="8" fill="#cd00cd"/>
<rect x="78.4" y="76" width="3.9" height="16" fill="#cd00cd"/>
<rect x="82.3" y="76" width="3.9" height="8" fill="#cd00cd"/>
<rect x="86.2" y="76" width="3.9" height="16" fill="#cd00cd"/>
<rect x="109.6" y="76" width="3.9" height="8" fill="#00cdcd"/>
<rect x="113.5" y="84" width="3.9" height="8" fill="#00cdcd"/>
<rect x="187.6" y="84" width="7.8" height="8" fill="#00cdcd"/>
<rect x="195.4" y="84" width="3.9" height="8" fill="#00cdcd"/>
<rect x="199.3" y="76" width="3.9" height="8" fill="#00cdcd"/>
<rect x="214.9" y="84" width="3.9" height="8" fill="#cd00cd"/>
<rect x="234.4" y="84" width="7.8" height="8" fill="#cd00cd"/>
<rect x="242.2" y="76" width="3.9" height="16" fill="#cd00cd"/>
<rect x="246.1" y="76" width="3.9" height="8" fill="#cd00cd"/>
<rect x="253.9" y="76" width="3.9" height="8" fill="#cd00cd"/>
<rect x="257.8" y="84" width="3.9" height="8" fill="#cd00cd"/>
<rect x="269.5" y="84" width="3.9" height="8" fill="#cd00cd"/>
<rect x="273.4" y="84" width="3.9" height="8" fill="#cd00cd"/>
<rect x="277.3" y="76" width="3.9" height="16" fill="#cd00cd"/>
<rect x="304.6" y="76" width="3.9" height="16" fill="#00cdcd"/>
<rect x="437.2" y="84" width="15.6" height="8" fill="#00cdcd"/>
<text x="16" y="88.5" textLength="54.6" lengthAdjust="spacingAndGlyphs" xml:space="preserve">100.0 ┤</text>
<rect x="70.6" y="92" width="3.9" height="8" fill="#00cd00"/>
<rect x="74.5" y="100" width="3.9" height="8" fill="#00cd00"/>
<rect x="78.4" y="100" width="3.9" height="8" fill="#00cd00"/>
<rect x="90.1" y="92" width="3.9" height="16" fill="#cd00cd"/>
<rect x="113.5" y="92" width="3.9" height="8" fill="#00cdcd"/>
<rect x="117.4" y="100" width="3.9" height="8" fill="#00cdcd"/>
<rect x="175.9" y="100" width="3.9" height="8" fill="#00cdcd"/>
<rect x="179.8" y="100" width="3.9" height="8" fill="#00cdcd"/>
<rect x="183.7" y="92" width="3.9" height="8" fill="#00cdcd"/>
<rect x="207.1" y="100" width="3.9" height="8" fill="#cd00cd"/>
<rect x="211" y="100" width="3.9" height="8" fill="#cd00cd"/>
<rect x="214.9" y="92" width="3.9" height="8" fill="#cd00cd"/>
<rect x="218.8" y="92" width="3.9" height="16" fill="#cd00cd"/>
<rect x="222.7" y="100" width="3.9" height="8" fill="#cd00cd"/>
<rect x="230.5" y="92" width="3.9" height="16" fill="#cd00cd"/>
<rect x="234.4" y="92" width="15.6" height="8" fill="#00cd00"/>
<rect x="253.9" y="92" width="3.9" height="8" fill="#00cd00"/>
<rect x="257.8" y="92" width="7.8" height="8" fill="#cd00cd"/>
<rect x="265.6" y="92" width="3.9" height="16" fill="#cd00cd"/>
<rect x="269.5" y="92" width="3.9" height="8" fill="#cd00cd"/>
<rect x="273.4" y="92" width="3.9" height="16" fill="#cd00cd"/>
<rect x="281.2" y="92" width="3.9" height="16" fill="#cd00cd"/>
<rect x="308.5" y="92" width="3.9" height="16" fill="#00cdcd"/>
<rect x="425.5" y="100" width="3.9" height="8" fill="#00cdcd"/>
<rect x="429.4" y="100" width="3.9" height="8" fill="#00cdcd"/>
<rect x="433.3" y="92" width="3.9" height="8" fill="#00cdcd"/>
<rect x="437.2" y="92" width="3.9" height="8" fill="#00cdcd"/>
<rect x="452.8" y="92" width="3.9" height="8" fill="#00cdcd"/>
<rect x="456.7" y="100" width="3.9" height="8" fill="#00cdcd"/>
<rect x="503.5" y="100" width="3.9" height="8" fill="#00cdcd"/>
<rect x="507.4" y="100" width="7.8" height="8" fill="#00cdcd"/>
<rect x="554.2" y="100" width="15.6" height="8" fill="#00cdcd"/>
<rect x="569.8" y="100" width="3.9" height="8" fill="#00cdcd"/>
<text x="62.8" y="104.5" textLength="7.8" lengthAdjust="spacingAndGlyphs" xml:space="preserve">│</text>
<rect x="78.4" y="108" width="7.8" height="8" fill="#00cd00"/>
<rect x="90.1" y="116" width="3.9" height="8" fill="#00cd00"/>
<rect x="94" y="108" width="3.9" height="16" fill="#cd00cd"/>
<rect x="97.9" y="116" width="3.9" height="8" fill="#cd00cd"/>
<rect x="101.8" y="116" width="3.9" height="8" fill="#00cd00"/>
<rect x="121.3" y="108" width="3.9" height="8" fill="#00cdcd"/>
<rect x="125.2" y="108" width="3.9" height="8" fill="#00cdcd"/>
<rect x="129.1" y="116" width="3.9" height="8" fill="#00cdcd"/>
<rect x="133" y="108" width="7.8" height="8" fill="#00cdcd"/>
<rect x="140.8" y="108" width="3.9" height="8" fill="#cd00cd"/>
<rect x="144.7" y="108" width="3.9" height="16" fill="#cd00cd"/>
<rect x="148.6" y="108" width="3.9" height="16" fill="#cd00cd"/>
<rect x="152.5" y="108" width="3.9" height="8" fill="#cd00cd"/>
<rect x="156.4" y="108" width="7.8" height="8" fill="#00cdcd"/>
<rect x="164.2" y="108" width="3.9" height="16" fill="#cd00cd"/>
<rect x="168.1" y="108" width="3.9" height="8" fill="#cd00cd"/>
<rect x="172" y="108" width="3.9" height="8" fill="#00cdcd"/>
<rect x="203.2" y="116" width="3.9" height="8" fill="#cd00cd"/>
<rect x="207.1" y="108" width="3.9" height="8" fill="#cd00cd"/>
<rect x="214.9" y="108" width="3.9" height="8" fill="#00cd00"/>
<rect x="222.7" y="108" width="3.9" height="8" fill="#cd00cd"/>
<rect x="226.6" y="108" width="3.9" height="16" fill="#cd00cd"/>
<rect x="234.4" y="116" width="23.4" height="8" fill="#e6edf3"/>
<rect x="277.3" y="108" width="3.9" height="8" fill="#00cd00"/>
<rect x="281.2" y="116" width="3.9" height="8" fill="#cd00cd"/>
<rect x="285.1" y="108" width="3.9" height="16" fill="#cd00cd"/>
<rect x="312.4" y="108" width="3.9" height="8" fill="#00cdcd"/>
<rect x="316.3" y="116" width="3.9" height="8" fill="#00cdcd"/>
<rect x="320.2" y="116" width="3.9" height="8" fill="#00cdcd"/>
<rect x="394.3" y="116" width="3.9" height="8" fill="#00cdcd"/>
<rect x="398.2" y="116" width="23.4" height="8" fill="#00cdcd"/>
<rect x="421.6" y="108" width="3.9" height="8" fill="#00cdcd"/>
<rect x="460.6" y="108" width="3.9" height="8" fill="#00cdcd"/>
<rect x="464.5" y="116" width="3.9" height="8" fill="#00cdcd"/>
<rect x="495.7" y="116" width="3.9" height="8" fill="#00cdcd"/>
<rect x="499.6" y="108" width="3.9" height="8" fill="#00cdcd"/>
<rect x="515.2" y="108" width="3.9" height="8" fill="#00cdcd"/>
<rect x="519.1" y="116" width="3.9" height="8" fill="#00cdcd"/>
<rect x="523" y="116" width="7.8" height="8" fill="#00cdcd"/>
<rect x="530.8" y="116" width="3.9" height="8" fill="#00cdcd"/>
<rect x="534.7" y="108" width="3.9" height="16" fill="#00cdcd"/>
<rect x="538.6" y="108" width="15.6" height="8" fill="#00cdcd"/>
<rect x="565.9" y="108" width="3.9" height="16" fill="#cd00cd"/>
<rect x="569.8" y="116" width="3.9" height="8" fill="#cd00cd"/>
<text x="23.8" y="120.5" textLength="46.8" lengthAdjust="spacingAndGlyphs" xml:space="preserve">97.5 ┤</text>
<rect x="97.9" y="124" width="3.9" height="8" fill="#cd00cd"/>
<rect x="101.8" y="132" width="3.9" height="8" fill="#cd00cd"/>
<rect x="109.6" y="132" width="15.6" height="8" fill="#00cd00"/>
<rect x="125.2" y="124" width="3.9" height="16" fill="#cd00cd"/>
<rect x="129.1" y="132" width="3.9" height="8" fill="#cd00cd"/>
<rect x="140.8" y="132" width="3.9" height="8" fill="#cd00cd"/>
<rect x="144.7" y="124" width="3.9" height="8" fill="#cd00cd"/>
<rect x="152.5" y="124" width="3.9" height="8" fill="#cd00cd"/>
<rect x="156.4" y="132" width="7.8" height="8" fill="#cd00cd"/>
<rect x="164.2" y="124" width="7.8" height="16" fill="#cd00cd"/>
<rect x="172" y="132" width="15.6" height="8" fill="#00cd00"/>
<rect x="187.6" y="132" width="7.8" height="8" fill="#cd00cd"/>
<rect x="195.4" y="124" width="3.9" height="8" fill="#cd00cd"/>
<rect x="199.3" y="124" width="3.9" height="16" fill="#cd00cd"/>
<rect x="226.6" y="124" width="3.9" height="16" fill="#e6edf3"/>
<rect x="230.5" y="124" width="3.9" height="8" fill="#e6edf3"/>
<rect x="257.8" y="124" width="3.9" height="16" fill="#e6edf3"/>
<rect x="261.7" y="132" width="3.9" height="8" fill="#e6edf3"/>
<rect x="289" y="124" width="3.9" height="16" fill="#cd00cd"/>
<rect x="292.9" y="132" width="3.9" height="8" fill="#cd00cd"/>
<rect x="296.8" y="124" width="7.8" height="8" fill="#cd00cd"/>
<rect x="304.6" y="132" width="3.9" height="8" fill="#cd00cd"/>
<rect x="324.1" y="124" width="3.9" height="8" fill="#00cdcd"/>
<rect x="328" y="132" width="3.9" height="8" fill="#00cdcd"/>
<rect x="370.9" y="132" width="3.9" height="8" fill="#00cdcd"/>
<rect x="374.8" y="132" width="3.9" height="8" fill="#00cdcd"/>
<rect x="378.7" y="124" width="3.9" height="8" fill="#00cdcd"/>
<rect x="382.6" y="124" width="7.8" height="8" fill="#00cdcd"/>
<rect x="390.4" y="124" width="3.9" height="8" fill="#00cdcd"/>
<rect x="406" y="132" width="3.9" height="8" fill="#cd00cd"/>
<rect x="409.9" y="124" width="3.9" height="16" fill="#cd00cd"/>
<rect x="417.7" y="132" width="3.9" height="8" fill="#cd00cd"/>
<rect x="421.6" y="132" width="3.9" height="8" fill="#cd00cd"/>
<rect x="425.5" y="124" width="3.9" height="8" fill="#cd00cd"/>
<rect x="429.4" y="132" width="15.6" height="8" fill="#cd00cd"/>
<rect x="464.5" y="124" width="3.9" height="8" fill="#00cdcd"/>
<rect x="468.4" y="132" width="3.9" height="8" fill="#00cdcd"/>
<rect x="487.9" y="132" width="3.9" height="8" fill="#00cdcd"/>
<rect x="491.8" y="124" width="3.9" height="8" fill="#00cdcd"/>
<rect x="523" y="132" width="3.9" height="8" fill="#cd00cd"/>
<rect x="530.8" y="132" width="3.9" height="8" fill="#cd00cd"/>
<rect x="542.5" y="132" width="3.9" height="8" fill="#00cd00"/>
<rect x="546.4" y="132" width="7.8" height="8" fill="#00cd00"/>
<rect x="554.2" y="132" width="3.9" height="8" fill="#cd00cd"/>
<rect x="558.1" y="124" width="3.9" height="8" fill="#cd00cd"/>
<rect x="562" y="124" width="3.9" height="8" fill="#cd00cd"/>
<rect x="565.9" y="132" width="3.9" height="8" fill="#cd00cd"/>
<rect x="569.8" y="132" width="3.9" height="8" fill="#00cd00"/>
<text x="62.8" y="136.5" textLength="7.8" lengthAdjust="spacingAndGlyphs" xml:space="preserve">│</text>
<rect x="70.6" y="140" width="3.9" height="8" fill="#e6edf3"/>
<rect x="74.5" y="148" width="3.9" height="8" fill="#e6edf3"/>
<rect x="105.7" y="140" width="3.9" height="16" fill="#cd00cd"/>
<rect x="109.6" y="140" width="3.9" height="8" fill="#cd00cd"/>
<rect x="113.5" y="148" width="3.9" height="8" fill="#cd00cd"/>
<rect x="117.4" y="148" width="3.9" height="8" fill="#cd00cd"/>
<rect x="121.3" y="140" width="3.9" height="16" fill="#cd00cd"/>
<rect x="129.1" y="140" width="3.9" height="16" fill="#cd00cd"/>
<rect x="133" y="140" width="3.9" height="8" fill="#cd00cd"/>
<rect x="136.9" y="140" width="3.9" height="16" fill="#cd00cd"/>
<rect x="140.8" y="140" width="3.9" height="8" fill="#cd00cd"/>
<rect x="152.5" y="140" width="3.9" height="8" fill="#00cd00"/>
<rect x="156.4" y="140" width="7.8" height="8" fill="#cd00cd"/>
<rect x="172" y="140" width="3.9" height="16" fill="#cd00cd"/>
<rect x="179.8" y="140" width="3.9" height="16" fill="#cd00cd"/>
<rect x="183.7" y="148" width="3.9" height="8" fill="#cd00cd"/>
<rect x="187.6" y="140" width="3.9" height="8" fill="#cd00cd"/>
<rect x="195.4" y="140" width="3.9" height="8" fill="#cd00cd"/>
<rect x="211" y="148" width="7.8" height="8" fill="#e6edf3"/>
<rect x="218.8" y="140" width="7.8" height="8" fill="#e6edf3"/>
<rect x="265.6" y="140" width="7.8" height="8" fill="#e6edf3"/>
<rect x="273.4" y="148" width="3.9" height="8" fill="#e6edf3"/>
<rect x="289" y="140" width="3.9" height="8" fill="#cd00cd"/>
<rect x="296.8" y="140" width="7.8" height="8" fill="#00cd00"/>
<rect x="304.6" y="140" width="3.9" height="8" fill="#cd00cd"/>
<rect x="308.5" y="148" width="3.9" height="8" fill="#cd00cd"/>
<rect x="331.9" y="140" width="3.9" height="8" fill="#00cdcd"/>
<rect x="335.8" y="148" width="3.9" height="8" fill="#00cdcd"/>
<rect x="347.5" y="148" width="3.9" height="8" fill="#00cdcd"/>
<rect x="351.4" y="148" width="7.8" height="8" fill="#00cdcd"/>
<rect x="359.2" y="140" width="15.6" height="8" fill="#00cdcd"/>
<rect x="382.6" y="148" width="3.9" height="8" fill="#cd00cd"/>
<rect x="390.4" y="140" width="3.9" height="16" fill="#cd00cd"/>
<rect x="394.3" y="148" width="3.9" height="8" fill="#cd00cd"/>
<rect x="398.2" y="148" width="3.9" height="8" fill="#cd00cd"/>
<rect x="402.1" y="140" width="3.9" height="16" fill="#cd00cd"/>
<rect x="413.8" y="140" width="7.8" height="16" fill="#cd00cd"/>
<rect x="421.6" y="140" width="7.8" height="8" fill="#00cd00"/>
<rect x="433.3" y="148" width="3.9" height="8" fill="#00cd00"/>
<rect x="437.2" y="140" width="3.9" height="16" fill="#cd00cd"/>
<rect x="441.1" y="140" width="3.9" height="8" fill="#cd00cd"/>
<rect x="445" y="140" width="3.9" height="8" fill="#cd00cd"/>
<rect x="448.9" y="148" width="3.9" height="8" fill="#cd00cd"/>
<rect x="472.3" y="140" width="3.9" height="8" fill="#00cdcd"/>
<rect x="476.2" y="148" width="7.8" height="8" fill="#00cdcd"/>
<rect x="484" y="140" width="3.9" height="16" fill="#00cdcd"/>
<rect x="515.2" y="148" width="3.9" height="8" fill="#cd00cd"/>
<rect x="519.1" y="140" width="3.9" height="8" fill="#cd00cd"/>
<rect x="523" y="148" width="3.9" height="8" fill="#cd00cd"/>
<rect x="526.9" y="140" width="3.9" height="16" fill="#cd00cd"/>
<rect x="530.8" y="140" width="7.8" height="16" fill="#cd00cd"/>
<rect x="538.6" y="140" width="3.9" height="8" fill="#cd00cd"/>
<rect x="542.5" y="148" width="3.9" height="8" fill="#cd00cd"/>
<rect x="546.4" y="148" width="3.9" height="8" fill="#cd00cd"/>
<rect x="550.3" y="140" width="3.9" height="16" fill="#cd00cd"/>
<text x="23.8" y="152.5" textLength="46.8" lengthAdjust="spacingAndGlyphs" xml:space="preserve">95.0 ┤</text>
<rect x="74.5" y="156" width="3.9" height="8" fill="#e6edf3"/>
<rect x="78.4" y="156" width="3.9" height="16" fill="#e6edf3"/>
<rect x="113.5" y="156" width="3.9" height="8" fill="#cd00cd"/>
<rect x="117.4" y="164" width="7.8" height="8" fill="#e6edf3"/>
<rect x="125.2" y="164" width="3.9" height="8" fill="#cd00cd"/>
<rect x="129.1" y="156" width="3.9" height="16" fill="#cd00cd"/>
<rect x="133" y="156" width="3.9" height="16" fill="#cd00cd"/>
<rect x="136.9" y="164" width="3.9" height="8" fill="#cd00cd"/>
<rect x="140.8" y="164" width="23.4" height="8" fill="#e6edf3"/>
<rect x="164.2" y="164" width="3.9" height="8" fill="#e6edf3"/>
<rect x="168.1" y="156" width="3.9" height="8" fill="#e6edf3"/>
<rect x="172" y="156" width="3.9" height="8" fill="#cd00cd"/>
<rect x="175.9" y="156" width="3.9" height="16" fill="#cd00cd"/>
<rect x="179.8" y="164" width="3.9" height="8" fill="#e6edf3"/>
<rect x="191.5" y="164" width="3.9" height="8" fill="#e6edf3"/>
<rect x="195.4" y="164" width="7.8" height="8" fill="#e6edf3"/>
<rect x="203.2" y="164" width="3.9" height="8" fill="#e6edf3"/>
<rect x="207.1" y="156" width="3.9" height="8" fill="#e6edf3"/>
<rect x="273.4" y="156" width="3.9" height="8" fill="#e6edf3"/>
<rect x="277.3" y="164" width="3.9" height="8" fill="#e6edf3"/>
<rect x="308.5" y="156" width="3.9" height="8" fill="#cd00cd"/>
<rect x="312.4" y="156" width="3.9" height="16" fill="#cd00cd"/>
<rect x="316.3" y="164" width="3.9" height="8" fill="#cd00cd"/>
<rect x="320.2" y="164" width="3.9" height="8" fill="#00cd00"/>
<rect x="339.7" y="156" width="3.9" height="8" fill="#00cdcd"/>
<rect x="343.6" y="156" width="3.9" height="8" fill="#00cdcd"/>
<rect x="355.3" y="164" width="3.9" height="8" fill="#cd00cd"/>
<rect x="359.2" y="164" width="7.8" height="8" fill="#cd00cd"/>
<rect x="370.9" y="164" width="3.9" height="8" fill="#cd00cd"/>
<rect x="374.8" y="156" width="3.9" height="16" fill="#cd00cd"/>
<rect x="378.7" y="156" width="3.9" height="8" fill="#cd00cd"/>
<rect x="382.6" y="156" width="3.9" height="8" fill="#cd00cd"/>
<rect x="386.5" y="156" width="3.9" height="16" fill="#cd00cd"/>
<rect x="398.2" y="156" width="3.9" height="16" fill="#cd00cd"/>
<rect x="402.1" y="156" width="3.9" height="8" fill="#cd00cd"/>
<rect x="406" y="164" width="15.6" height="8" fill="#e6edf3"/>
<rect x="437.2" y="156" width="3.9" height="8" fill="#00cd00"/>
<rect x="441.1" y="164" width="3.9" height="8" fill="#00cd00"/>
<rect x="448.9" y="156" width="3.9" height="8" fill="#cd00cd"/>
<rect x="452.8" y="164" width="3.9" height="8" fill="#cd00cd"/>
<rect x="503.5" y="164" width="3.9" height="8" fill="#cd00cd"/>
<rect x="511.3" y="156" width="3.9" height="16" fill="#cd00cd"/>
<rect x="515.2" y="156" width="3.9" height="16" fill="#cd00cd"/>
<rect x="542.5" y="164" width="3.9" height="8" fill="#e6edf3"/>
<rect x="546.4" y="164" width="23.4" height="8" fill="#e6edf3"/>
<rect x="569.8" y="156" width="3.9" height="8" fill="#e6edf3"/>
<text x="62.8" y="168.5" textLength="7.8" lengthAdjust="spacingAndGlyphs" xml:space="preserve">│</text>
<rect x="82.3" y="172" width="3.9" height="8" fill="#e6edf3"/>
<rect x="86.2" y="172" width="3.9" height="8" fill="#e6edf3"/>
<rect x="90.1" y="180" width="3.9" height="8" fill="#e6edf3"/>
<rect x="94" y="180" width="15.6" height="8" fill="#e6edf3"/>
<rect x="109.6" y="180" width="3.9" height="8" fill="#e6edf3"/>
<rect x="113.5" y="172" width="3.9" height="8" fill="#e6edf3"/>
<rect x="183.7" y="172" width="3.9" height="8" fill="#e6edf3"/>
<rect x="187.6" y="172" width="7.8" height="8" fill="#e6edf3"/>
<rect x="281.2" y="172" width="3.9" height="8" fill="#e6edf3"/>
<rect x="285.1" y="180" width="3.9" height="8" fill="#e6edf3"/>
<rect x="312.4" y="172" width="3.9" height="8" fill="#cd00cd"/>
<rect x="316.3" y="180" width="3.9" height="8" fill="#cd00cd"/>
<rect x="320.2" y="172" width="3.9" height="16" fill="#cd00cd"/>
<rect x="324.1" y="180" width="3.9" height="8" fill="#cd00cd"/>
<rect x="328" y="172" width="3.9" height="16" fill="#cd00cd"/>
<rect x="331.9" y="172" width="3.9" height="8" fill="#cd00cd"/>
<rect x="335.8" y="172" width="7.8" height="16" fill="#cd00cd"/>
<rect x="343.6" y="172" width="3.9" height="8" fill="#cd00cd"/>
<rect x="347.5" y="180" width="3.9" height="8" fill="#cd00cd"/>
<rect x="351.4" y="172" width="3.9" height="8" fill="#cd00cd"/>
<rect x="355.3" y="172" width="3.9" height="16" fill="#cd00cd"/>
<rect x="367" y="172" width="7.8" height="8" fill="#cd00cd"/>
<rect x="382.6" y="180" width="15.6" height="8" fill="#e6edf3"/>
<rect x="398.2" y="172" width="7.8" height="8" fill="#e6edf3"/>
<rect x="421.6" y="172" width="3.9" height="8" fill="#e6edf3"/>
<rect x="425.5" y="180" width="3.9" height="8" fill="#e6edf3"/>
<rect x="448.9" y="180" width="3.9" height="8" fill="#00cd00"/>
<rect x="452.8" y="172" width="3.9" height="16" fill="#cd00cd"/>
<rect x="499.6" y="172" width="3.9" height="16" fill="#cd00cd"/>
<rect x="507.4" y="172" width="3.9" height="16" fill="#cd00cd"/>
<rect x="511.3" y="172" width="3.9" height="8" fill="#cd00cd"/>
<rect x="526.9" y="180" width="3.9" height="8" fill="#e6edf3"/>
<rect x="530.8" y="172" width="7.8" height="8" fill="#e6edf3"/>
<rect x="538.6" y="172" width="3.9" height="8" fill="#e6edf3"/>
<text x="23.8" y="184.5" textLength="46.8" lengthAdjust="spacingAndGlyphs" xml:space="preserve">92.5 ┤</text>
<rect x="289" y="188" width="3.9" height="16" fill="#e6edf3"/>
<rect x="316.3" y="188" width="3.9" height="8" fill="#cd00cd"/>
<rect x="324.1" y="188" width="3.9" height="16" fill="#cd00cd"/>
<rect x="328" y="188" width="3.9" height="8" fill="#cd00cd"/>
<rect x="335.8" y="188" width="3.9" height="8" fill="#cd00cd"/>
<rect x="339.7" y="188" width="3.9" height="16" fill="#cd00cd"/>
<rect x="343.6" y="196" width="3.9" height="8" fill="#cd00cd"/>
<rect x="347.5" y="188" width="3.9" height="16" fill="#cd00cd"/>
<rect x="351.4" y="188" width="3.9" height="16" fill="#cd00cd"/>
<rect x="355.3" y="196" width="3.9" height="8" fill="#cd00cd"/>
<rect x="359.2" y="196" width="7.8" height="8" fill="#e6edf3"/>
<rect x="367" y="188" width="15.6" height="8" fill="#e6edf3"/>
<rect x="425.5" y="188" width="3.9" height="8" fill="#e6edf3"/>
<rect x="429.4" y="196" width="3.9" height="8" fill="#e6edf3"/>
<rect x="452.8" y="188" width="3.9" height="8" fill="#cd00cd"/>
<rect x="456.7" y="188" width="3.9" height="16" fill="#cd00cd"/>
<rect x="460.6" y="188" width="3.9" height="8" fill="#00cd00"/>
<rect x="487.9" y="196" width="3.9" height="8" fill="#00cd00"/>
<rect x="491.8" y="196" width="7.8" height="8" fill="#cd00cd"/>
<rect x="499.6" y="188" width="3.9" height="16" fill="#cd00cd"/>
<rect x="523" y="188" width="3.9" height="16" fill="#e6edf3"/>
<text x="62.8" y="200.5" textLength="7.8" lengthAdjust="spacingAndGlyphs" xml:space="preserve">│</text>
<rect x="292.9" y="204" width="3.9" height="8" fill="#e6edf3"/>
<rect x="296.8" y="212" width="7.8" height="8" fill="#e6edf3"/>
<rect x="308.5" y="212" width="3.9" height="8" fill="#e6edf3"/>
<rect x="312.4" y="212" width="15.6" height="8" fill="#e6edf3"/>
<rect x="328" y="204" width="7.8" height="8" fill="#e6edf3"/>
<rect x="335.8" y="204" width="3.9" height="8" fill="#e6edf3"/>
<rect x="433.3" y="204" width="3.9" height="8" fill="#e6edf3"/>
<rect x="437.2" y="212" width="3.9" height="8" fill="#e6edf3"/>
<rect x="460.6" y="204" width="3.9" height="8" fill="#cd00cd"/>
<rect x="464.5" y="212" width="3.9" height="8" fill="#cd00cd"/>
<rect x="468.4" y="204" width="15.6" height="8" fill="#00cd00"/>
<rect x="491.8" y="212" width="3.9" height="8" fill="#cd00cd"/>
<rect x="495.7" y="204" width="3.9" height="8" fill="#cd00cd"/>
<rect x="515.2" y="212" width="3.9" height="8" fill="#e6edf3"/>
<rect x="519.1" y="204" width="3.9" height="8" fill="#e6edf3"/>
<text x="23.8" y="216.5" textLength="46.8" lengthAdjust="spacingAndGlyphs" xml:space="preserve">90.0 ┤</text>
<rect x="304.6" y="220" width="3.9" height="8" fill="#e6edf3"/>
<rect x="437.2" y="220" width="3.9" height="16" fill="#e6edf3"/>
<rect x="468.4" y="220" width="3.9" height="16" fill="#cd00cd"/>
<rect x="472.3" y="228" width="3.9" height="8" fill="#cd00cd"/>
<rect x="476.2" y="220" width="3.9" height="8" fill="#cd00cd"/>
<rect x="480.1" y="228" width="3.9" height="8" fill="#cd00cd"/>
<rect x="487.9" y="220" width="3.9" height="16" fill="#cd00cd"/>
<rect x="515.2" y="220" width="3.9" height="16" fill="#e6edf3"/>
<text x="62.8" y="232.5" textLength="7.8" lengthAdjust="spacingAndGlyphs" xml:space="preserve">│</text>
<rect x="437.2" y="236" width="3.9" height="8" fill="#e6edf3"/>
<rect x="441.1" y="244" width="3.9" height="8" fill="#e6edf3"/>
<rect x="468.4" y="236" width="3.9" height="16" fill="#cd00cd"/>
<rect x="472.3" y="236" width="3.9" height="8" fill="#cd00cd"/>
<rect x="480.1" y="236" width="3.9" height="8" fill="#cd00cd"/>
<rect x="484" y="236" width="3.9" height="16" fill="#cd00cd"/>
<rect x="511.3" y="244" width="3.9" height="8" fill="#e6edf3"/>
<rect x="515.2" y="236" width="3.9" height="8" fill="#e6edf3"/>
<text x="23.8" y="248.5" textLength="46.8" lengthAdjust="spacingAndGlyphs" xml:space="preserve">87.5 ┤</text>
<rect x="445" y="252" width="3.9" height="8" fill="#e6edf3"/>
<rect x="448.9" y="260" width="3.9" height="8" fill="#e6edf3"/>
<rect x="472.3" y="260" width="3.9" height="8" fill="#e6edf3"/>
<rect x="476.2" y="260" width="7.8" height="8" fill="#e6edf3"/>
<rect x="484" y="260" width="3.9" height="8" fill="#e6edf3"/>
<rect x="499.6" y="260" width="3.9" height="8" fill="#e6edf3"/>
<rect x="503.5" y="252" width="3.9" height="8" fill="#e6edf3"/>
<rect x="507.4" y="252" width="3.9" height="8" fill="#e6edf3"/>
<text x="62.8" y="264.5" textLength="7.8" lengthAdjust="spacingAndGlyphs" xml:space="preserve">│</text>
<rect x="452.8" y="268" width="3.9" height="16" fill="#e6edf3"/>
<rect x="456.7" y="276" width="3.9" height="8" fill="#e6edf3"/>
<rect x="460.6" y="276" width="7.8" height="8" fill="#e6edf3"/>
<rect x="468.4" y="268" width="3.9" height="8" fill="#e6edf3"/>
<rect x="487.9" y="268" width="3.9" height="8" fill="#e6edf3"/>
<rect x="491.8" y="268" width="7.8" height="8" fill="#e6edf3"/>
<rect x="499.6" y="268" width="3.9" height="8" fill="#e6edf3"/>
<text x="23.8" y="280.5" textLength="46.8" lengthAdjust="spacingAndGlyphs" xml:space="preserve">85.0 ┤</text>
<text x="62.8" y="296.5" textLength="514.8" lengthAdjust="spacingAndGlyphs" xml:space="preserve">└┬───────┬───────┬───────┬───────┬───────┬───────┬───────┬───────┬</text>
<text x="70.6" y="312.5" textLength="507" lengthAdjust="spacingAndGlyphs" xml:space="preserve">0      20      40      60      80      100     120     140    160</text>
<text x="312.4" y="328.5" textLength="23.4" lengthAdjust="spacingAndGlyphs" xml:space="preserve">day</text>
</svg>
