<svg xmlns="http://www.w3.org/2000/svg" width="593.6" height="376" viewBox="0 0 593.6 376" font-family="ui-monospace,SFMono-Regular,Menlo,Monaco,Consolas,monospace" font-size="13" fill="#e6edf3" shape-rendering="crispEdges">
<rect width="593.6" height="376" rx="8" fill="#0d1117"/>
<text x="203.2" y="24.5" textLength="179.4" lengthAdjust="spacingAndGlyphs" xml:space="preserve">spiral flow into a sink</text>
<rect x="433.3" y="36" width="3.9" height="8" fill="#e6edf3"/>
<rect x="437.2" y="36" width="23.4" height="8" fill="#e6edf3"/>
<rect x="464.5" y="28" width="3.9" height="8" fill="#e6edf3"/>
<rect x="468.4" y="28" width="15.6" height="16" fill="#e6edf3"/>
<rect x="484" y="28" width="7.8" height="8" fill="#e6edf3"/>
<text x="39.4" y="40.5" textLength="39" lengthAdjust="spacingAndGlyphs" xml:space="preserve">2.0 ┤</text>
<rect x="355.3" y="52" width="3.9" height="8" fill="#e6edf3"/>
<rect x="359.2" y="52" width="3.9" height="8" fill="#e6edf3"/>
<rect x="374.8" y="52" width="15.6" height="8" fill="#e6edf3"/>
<rect x="390.4" y="52" width="3.9" height="8" fill="#e6edf3"/>
<rect x="406" y="44" width="3.9" height="8" fill="#e6edf3"/>
<rect x="409.9" y="44" width="3.9" height="16" fill="#e6edf3"/>
<rect x="413.8" y="44" width="7.8" height="16" fill="#e6edf3"/>
<rect x="421.6" y="44" width="3.9" height="16" fill="#e6edf3"/>
<rect x="425.5" y="52" width="3.9" height="8" fill="#e6edf3"/>
<rect x="429.4" y="52" width="3.9" height="8" fill="#e6edf3"/>
<rect x="437.2" y="44" width="7.8" height="8" fill="#e6edf3"/>
<rect x="445" y="44" width="3.9" height="16" fill="#e6edf3"/>
<rect x="448.9" y="44" width="3.9" height="8" fill="#e6edf3"/>
<rect x="452.8" y="44" width="3.9" height="8" fill="#e6edf3"/>
<rect x="456.7" y="52" width="3.9" height="8" fill="#e6edf3"/>
<rect x="460.6" y="52" width="7.8" height="8" fill="#e6edf3"/>
<rect x="468.4" y="52" width="3.9" height="8" fill="#e6edf3"/>
<rect x="472.3" y="44" width="3.9" height="8" fill="#e6edf3"/>
<rect x="476.2" y="52" width="7.8" height="8" fill="#e6edf3"/>
<rect x="484" y="44" width="7.8" height="16" fill="#e6edf3"/>
<rect x="491.8" y="44" width="3.9" height="16" fill="#e6edf3"/>
<rect x="495.7" y="52" width="3.9" height="8" fill="#e6edf3"/>
<rect x="499.6" y="52" width="7.8" height="8" fill="#e6edf3"/>
<text x="70.6" y="56.5" textLength="7.8" lengthAdjust="spacingAndGlyphs" xml:space="preserve">│</text>
<rect x="129.1" y="68" width="3.9" height="8" fill="#e6edf3"/>
<rect x="160.3" y="68" width="3.9" height="8" fill="#e6edf3"/>
<rect x="195.4" y="68" width="3.9" height="8" fill="#e6edf3"/>
<rect x="226.6" y="68" width="3.9" height="8" fill="#e6edf3"/>
<rect x="257.8" y="68" width="7.8" height="8" fill="#e6edf3"/>
<rect x="285.1" y="68" width="3.9" height="8" fill="#e6edf3"/>
<rect x="289" y="68" width="7.8" height="8" fill="#e6edf3"/>
<rect x="308.5" y="68" width="3.9" height="8" fill="#e6edf3"/>
<rect x="312.4" y="68" width="7.8" height="8" fill="#e6edf3"/>
<rect x="320.2" y="68" width="3.9" height="8" fill="#e6edf3"/>
<rect x="324.1" y="60" width="3.9" height="16" fill="#e6edf3"/>
<rect x="328" y="60" width="3.9" height="16" fill="#e6edf3"/>
<rect x="331.9" y="68" width="3.9" height="8" fill="#e6edf3"/>
<rect x="335.8" y="68" width="7.8" height="8" fill="#e6edf3"/>
<rect x="343.6" y="68" width="3.9" height="8" fill="#e6edf3"/>
<rect x="347.5" y="60" width="3.9" height="16" fill="#e6edf3"/>
<rect x="351.4" y="60" width="7.8" height="16" fill="#e6edf3"/>
<rect x="359.2" y="60" width="3.9" height="16" fill="#e6edf3"/>
<rect x="363.1" y="60" width="3.9" height="8" fill="#e6edf3"/>
<rect x="367" y="60" width="3.9" height="8" fill="#e6edf3"/>
<rect x="370.9" y="68" width="3.9" height="8" fill="#e6edf3"/>
<rect x="374.8" y="68" width="7.8" height="8" fill="#e6edf3"/>
<rect x="382.6" y="60" width="7.8" height="16" fill="#e6edf3"/>
<rect x="390.4" y="60" width="3.9" height="16" fill="#e6edf3"/>
<rect x="394.3" y="60" width="3.9" height="8" fill="#e6edf3"/>
<rect x="398.2" y="60" width="15.6" height="8" fill="#e6edf3"/>
<rect x="413.8" y="68" width="15.6" height="8" fill="#e6edf3"/>
<rect x="429.4" y="68" width="3.9" height="8" fill="#e6edf3"/>
<rect x="433.3" y="60" width="3.9" height="8" fill="#e6edf3"/>
<rect x="437.2" y="60" width="7.8" height="8" fill="#e6edf3"/>
<rect x="445" y="60" width="3.9" height="8" fill="#e6edf3"/>
<rect x="448.9" y="60" width="3.9" height="16" fill="#e6edf3"/>
<rect x="452.8" y="60" width="7.8" height="16" fill="#e6edf3"/>
<rect x="460.6" y="60" width="3.9" height="16" fill="#e6edf3"/>
<rect x="464.5" y="60" width="3.9" height="8" fill="#e6edf3"/>
<rect x="472.3" y="60" width="3.9" height="8" fill="#e6edf3"/>
<rect x="476.2" y="60" width="3.9" height="8" fill="#e6edf3"/>
<rect x="480.1" y="60" width="3.9" height="16" fill="#e6edf3"/>
<rect x="484" y="60" width="3.9" height="8" fill="#e6edf3"/>
<rect x="487.9" y="60" width="3.9" height="16" fill="#e6edf3"/>
<rect x="491.8" y="68" width="7.8" height="8" fill="#e6edf3"/>
<rect x="499.6" y="68" width="3.9" height="8" fill="#e6edf3"/>
<rect x="507.4" y="60" width="7.8" height="8" fill="#e6edf3"/>
<rect x="515.2" y="60" width="3.9" height="8" fill="#e6edf3"/>
<rect x="519.1" y="68" width="3.9" height="8" fill="#e6edf3"/>
<rect x="523" y="68" width="3.9" height="8" fill="#e6edf3"/>
<text x="39.4" y="72.5" textLength="39" lengthAdjust="spacingAndGlyphs" xml:space="preserve">1.5 ┤</text>
<rect x="125.2" y="76" width="3.9" height="16" fill="#e6edf3"/>
<rect x="152.5" y="84" width="3.9" height="8" fill="#e6edf3"/>
<rect x="156.4" y="76" width="3.9" height="8" fill="#e6edf3"/>
<rect x="183.7" y="84" width="3.9" height="8" fill="#e6edf3"/>
<rect x="187.6" y="76" width="7.8" height="8" fill="#e6edf3"/>
<rect x="199.3" y="84" width="3.9" height="8" fill="#e6edf3"/>
<rect x="211" y="84" width="7.8" height="8" fill="#e6edf3"/>
<rect x="218.8" y="76" width="7.8" height="8" fill="#e6edf3"/>
<rect x="230.5" y="76" width="3.9" height="16" fill="#e6edf3"/>
<rect x="234.4" y="84" width="7.8" height="8" fill="#e6edf3"/>
<rect x="242.2" y="84" width="3.9" height="8" fill="#e6edf3"/>
<rect x="246.1" y="76" width="3.9" height="8" fill="#e6edf3"/>
<rect x="250" y="76" width="7.8" height="8" fill="#e6edf3"/>
<rect x="257.8" y="84" width="3.9" height="8" fill="#e6edf3"/>
<rect x="261.7" y="76" width="3.9" height="16" fill="#e6edf3"/>
<rect x="265.6" y="84" width="3.9" height="8" fill="#e6edf3"/>
<rect x="269.5" y="76" width="3.9" height="16" fill="#e6edf3"/>
<rect x="273.4" y="76" width="31.2" height="8" fill="#e6edf3"/>
<rect x="304.6" y="76" width="3.9" height="8" fill="#e6edf3"/>
<rect x="331.9" y="84" width="3.9" height="8" fill="#e6edf3"/>
<rect x="335.8" y="84" width="3.9" height="8" fill="#e6edf3"/>
<rect x="355.3" y="84" width="3.9" height="8" fill="#e6edf3"/>
<rect x="359.2" y="84" width="15.6" height="8" fill="#e6edf3"/>
<rect x="386.5" y="76" width="3.9" height="8" fill="#e6edf3"/>
<rect x="390.4" y="76" width="7.8" height="16" fill="#e6edf3"/>
<rect x="398.2" y="76" width="3.9" height="16" fill="#e6edf3"/>
<rect x="402.1" y="84" width="3.9" height="8" fill="#e6edf3"/>
<rect x="406" y="84" width="7.8" height="8" fill="#e6edf3"/>
<rect x="413.8" y="84" width="3.9" height="8" fill="#e6edf3"/>
<rect x="417.7" y="76" width="3.9" height="8" fill="#e6edf3"/>
<rect x="421.6" y="76" width="15.6" height="8" fill="#e6edf3"/>
<rect x="437.2" y="84" width="15.6" height="8" fill="#e6edf3"/>
<rect x="452.8" y="76" width="3.9" height="8" fill="#e6edf3"/>
<rect x="456.7" y="84" width="3.9" height="8" fill="#e6edf3"/>
<rect x="460.6" y="84" width="3.9" height="8" fill="#e6edf3"/>
<rect x="464.5" y="76" width="3.9" height="16" fill="#e6edf3"/>
<rect x="468.4" y="76" width="7.8" height="16" fill="#e6edf3"/>
<rect x="476.2" y="84" width="7.8" height="8" fill="#e6edf3"/>
<rect x="484" y="76" width="7.8" height="16" fill="#e6edf3"/>
<rect x="491.8" y="76" width="3.9" height="16" fill="#e6edf3"/>
<rect x="495.7" y="84" width="3.9" height="8" fill="#e6edf3"/>
<rect x="499.6" y="84" width="3.9" height="8" fill="#e6edf3"/>
<rect x="503.5" y="76" width="3.9" height="16" fill="#e6edf3"/>
<rect x="507.4" y="76" width="3.9" height="8" fill="#e6edf3"/>
<rect x="511.3" y="84" width="3.9" height="8" fill="#e6edf3"/>
<rect x="515.2" y="84" width="3.9" height="8" fill="#e6edf3"/>
<text x="70.6" y="88.5" textLength="7.8" lengthAdjust="spacingAndGlyphs" xml:space="preserve">│</text>
<rect x="117.4" y="100" width="3.9" height="8" fill="#e6edf3"/>
<rect x="121.3" y="92" width="3.9" height="8" fill="#e6edf3"/>
<rect x="129.1" y="92" width="3.9" height="16" fill="#e6edf3"/>
<rect x="133" y="100" width="3.9" height="8" fill="#e6edf3"/>
<rect x="144.7" y="100" width="3.9" height="8" fill="#e6edf3"/>
<rect x="148.6" y="92" width="3.9" height="16" fill="#e6edf3"/>
<rect x="152.5" y="100" width="3.9" height="8" fill="#e6edf3"/>
<rect x="156.4" y="100" width="3.9" height="8" fill="#e6edf3"/>
<rect x="160.3" y="92" width="3.9" height="8" fill="#e6edf3"/>
<rect x="168.1" y="92" width="3.9" height="16" fill="#e6edf3"/>
<rect x="172" y="100" width="7.8" height="8" fill="#e6edf3"/>
<rect x="179.8" y="92" width="3.9" height="16" fill="#e6edf3"/>
<rect x="183.7" y="100" width="3.9" height="8" fill="#e6edf3"/>
<rect x="191.5" y="100" width="3.9" height="8" fill="#e6edf3"/>
<rect x="195.4" y="92" width="7.8" height="16" fill="#e6edf3"/>
<rect x="203.2" y="92" width="7.8" height="8" fill="#e6edf3"/>
<rect x="211" y="92" width="3.9" height="8" fill="#e6edf3"/>
<rect x="222.7" y="100" width="3.9" height="8" fill="#e6edf3"/>
<rect x="226.6" y="92" width="7.8" height="8" fill="#e6edf3"/>
<rect x="253.9" y="100" width="3.9" height="8" fill="#e6edf3"/>
<rect x="257.8" y="100" width="3.9" height="8" fill="#e6edf3"/>
<rect x="261.7" y="92" width="3.9" height="8" fill="#e6edf3"/>
<rect x="269.5" y="100" width="3.9" height="8" fill="#e6edf3"/>
<rect x="273.4" y="100" width="15.6" height="8" fill="#e6edf3"/>
<rect x="289" y="92" width="7.8" height="8" fill="#e6edf3"/>
<rect x="296.8" y="100" width="3.9" height="8" fill="#e6edf3"/>
<rect x="300.7" y="92" width="3.9" height="16" fill="#e6edf3"/>
<rect x="304.6" y="100" width="7.8" height="8" fill="#e6edf3"/>
<rect x="312.4" y="100" width="3.9" height="8" fill="#e6edf3"/>
<rect x="316.3" y="92" width="3.9" height="8" fill="#e6edf3"/>
<rect x="320.2" y="92" width="46.8" height="8" fill="#e6edf3"/>
<rect x="374.8" y="92" width="15.6" height="8" fill="#e6edf3"/>
<rect x="390.4" y="92" width="3.9" height="8" fill="#e6edf3"/>
<rect x="394.3" y="100" width="3.9" height="8" fill="#e6edf3"/>
<rect x="398.2" y="100" width="7.8" height="8" fill="#e6edf3"/>
<rect x="406" y="100" width="3.9" height="8" fill="#e6edf3"/>
<rect x="417.7" y="92" width="3.9" height="8" fill="#e6edf3"/>
<rect x="421.6" y="92" width="7.8" height="8" fill="#e6edf3"/>
<rect x="429.4" y="92" width="7.8" height="16" fill="#e6edf3"/>
<rect x="437.2" y="92" width="3.9" height="16" fill="#e6edf3"/>
<rect x="441.1" y="100" width="3.9" height="8" fill="#e6edf3"/>
<rect x="452.8" y="92" width="7.8" height="8" fill="#e6edf3"/>
<rect x="464.5" y="92" width="3.9" height="8" fill="#e6edf3"/>
<rect x="468.4" y="92" width="3.9" height="8" fill="#e6edf3"/>
<rect x="472.3" y="100" width="3.9" height="8" fill="#e6edf3"/>
<rect x="476.2" y="100" width="3.9" height="8" fill="#e6edf3"/>
<rect x="487.9" y="92" width="3.9" height="8" fill="#e6edf3"/>
<rect x="491.8" y="92" width="3.9" height="8" fill="#e6edf3"/>
<rect x="495.7" y="100" width="3.9" height="8" fill="#e6edf3"/>
<rect x="499.6" y="92" width="3.9" height="16" fill="#e6edf3"/>
<rect x="503.5" y="92" width="3.9" height="8" fill="#e6edf3"/>
<rect x="507.4" y="100" width="7.8" height="8" fill="#e6edf3"/>
<rect x="519.1" y="92" width="3.9" height="8" fill="#e6edf3"/>
<rect x="523" y="92" width="3.9" height="8" fill="#e6edf3"/>
<text x="39.4" y="104.5" textLength="39" lengthAdjust="spacingAndGlyphs" xml:space="preserve">1.0 ┤</text>
<rect x="101.8" y="108" width="3.9" height="8" fill="#e6edf3"/>
<rect x="105.7" y="116" width="3.9" height="8" fill="#e6edf3"/>
<rect x="113.5" y="108" width="3.9" height="16" fill="#e6edf3"/>
<rect x="117.4" y="116" width="3.9" height="8" fill="#e6edf3"/>
<rect x="121.3" y="108" width="3.9" height="8" fill="#e6edf3"/>
<rect x="125.2" y="108" width="3.9" height="16" fill="#e6edf3"/>
<rect x="129.1" y="116" width="3.9" height="8" fill="#e6edf3"/>
<rect x="133" y="108" width="3.9" height="8" fill="#e6edf3"/>
<rect x="136.9" y="116" width="3.9" height="8" fill="#e6edf3"/>
<rect x="140.8" y="108" width="7.8" height="8" fill="#e6edf3"/>
<rect x="152.5" y="116" width="3.9" height="8" fill="#e6edf3"/>
<rect x="156.4" y="108" width="3.9" height="8" fill="#e6edf3"/>
<rect x="160.3" y="116" width="3.9" height="8" fill="#e6edf3"/>
<rect x="168.1" y="108" width="3.9" height="8" fill="#e6edf3"/>
<rect x="172" y="108" width="3.9" height="8" fill="#e6edf3"/>
<rect x="175.9" y="116" width="3.9" height="8" fill="#e6edf3"/>
<rect x="183.7" y="116" width="3.9" height="8" fill="#e6edf3"/>
<rect x="187.6" y="108" width="3.9" height="8" fill="#e6edf3"/>
<rect x="195.4" y="116" width="3.9" height="8" fill="#e6edf3"/>
<rect x="207.1" y="108" width="3.9" height="16" fill="#e6edf3"/>
<rect x="211" y="116" width="3.9" height="8" fill="#e6edf3"/>
<rect x="214.9" y="108" width="3.9" height="16" fill="#e6edf3"/>
<rect x="218.8" y="108" width="3.9" height="16" fill="#e6edf3"/>
<rect x="226.6" y="116" width="3.9" height="8" fill="#e6edf3"/>
<rect x="238.3" y="108" width="3.9" height="16" fill="#e6edf3"/>
<rect x="242.2" y="108" width="3.9" height="16" fill="#e6edf3"/>
<rect x="246.1" y="108" width="3.9" height="8" fill="#e6edf3"/>
<rect x="250" y="108" width="3.9" height="8" fill="#e6edf3"/>
<rect x="261.7" y="116" width="3.9" height="8" fill="#e6edf3"/>
<rect x="265.6" y="108" width="15.6" height="8" fill="#e6edf3"/>
<rect x="292.9" y="116" width="3.9" height="8" fill="#e6edf3"/>
<rect x="308.5" y="116" width="3.9" height="8" fill="#e6edf3"/>
<rect x="320.2" y="116" width="7.8" height="8" fill="#e6edf3"/>
<rect x="328" y="116" width="3.9" height="8" fill="#e6edf3"/>
<rect x="335.8" y="116" width="3.9" height="8" fill="#e6edf3"/>
<rect x="339.7" y="108" width="3.9" height="16" fill="#e6edf3"/>
<rect x="343.6" y="108" width="3.9" height="16" fill="#e6edf3"/>
<rect x="347.5" y="116" width="3.9" height="8" fill="#e6edf3"/>
<rect x="351.4" y="116" width="7.8" height="8" fill="#e6edf3"/>
<rect x="359.2" y="116" width="3.9" height="8" fill="#e6edf3"/>
<rect x="367" y="108" width="15.6" height="8" fill="#e6edf3"/>
<rect x="382.6" y="116" width="7.8" height="8" fill="#e6edf3"/>
<rect x="390.4" y="116" width="3.9" height="8" fill="#e6edf3"/>
<rect x="398.2" y="108" width="3.9" height="8" fill="#e6edf3"/>
<rect x="406" y="108" width="15.6" height="8" fill="#e6edf3"/>
<rect x="421.6" y="116" width="7.8" height="8" fill="#e6edf3"/>
<rect x="433.3" y="116" width="3.9" height="8" fill="#e6edf3"/>
<rect x="437.2" y="116" width="7.8" height="8" fill="#e6edf3"/>
<rect x="445" y="108" width="3.9" height="16" fill="#e6edf3"/>
<rect x="448.9" y="108" width="3.9" height="8" fill="#e6edf3"/>
<rect x="452.8" y="116" width="7.8" height="8" fill="#e6edf3"/>
<rect x="464.5" y="108" width="3.9" height="16" fill="#e6edf3"/>
<rect x="468.4" y="108" width="3.9" height="16" fill="#e6edf3"/>
<rect x="472.3" y="116" width="3.9" height="8" fill="#e6edf3"/>
<rect x="476.2" y="116" width="3.9" height="8" fill="#e6edf3"/>
<rect x="480.1" y="108" width="3.9" height="16" fill="#e6edf3"/>
<rect x="484" y="108" width="3.9" height="8" fill="#e6edf3"/>
<rect x="487.9" y="116" width="3.9" height="8" fill="#e6edf3"/>
<rect x="491.8" y="116" width="3.9" height="8" fill="#e6edf3"/>
<rect x="495.7" y="108" width="3.9" height="16" fill="#e6edf3"/>
<rect x="499.6" y="108" width="7.8" height="8" fill="#e6edf3"/>
<rect x="507.4" y="108" width="3.9" height="16" fill="#e6edf3"/>
<rect x="511.3" y="108" width="3.9" height="8" fill="#e6edf3"/>
<rect x="515.2" y="108" width="7.8" height="8" fill="#e6edf3"/>
<rect x="523" y="116" width="3.9" height="8" fill="#e6edf3"/>
<text x="70.6" y="120.5" textLength="7.8" lengthAdjust="spacingAndGlyphs" xml:space="preserve">│</text>
<rect x="109.6" y="124" width="3.9" height="16" fill="#e6edf3"/>
<rect x="121.3" y="124" width="3.9" height="16" fill="#e6edf3"/>
<rect x="129.1" y="124" width="3.9" height="16" fill="#e6edf3"/>
<rect x="140.8" y="124" width="3.9" height="8" fill="#e6edf3"/>
<rect x="144.7" y="132" width="3.9" height="8" fill="#e6edf3"/>
<rect x="148.6" y="132" width="3.9" height="8" fill="#e6edf3"/>
<rect x="152.5" y="124" width="3.9" height="16" fill="#e6edf3"/>
<rect x="156.4" y="132" width="3.9" height="8" fill="#e6edf3"/>
<rect x="160.3" y="124" width="3.9" height="16" fill="#e6edf3"/>
<rect x="175.9" y="124" width="3.9" height="16" fill="#e6edf3"/>
<rect x="179.8" y="124" width="3.9" height="16" fill="#e6edf3"/>
<rect x="183.7" y="124" width="3.9" height="8" fill="#e6edf3"/>
<rect x="187.6" y="124" width="3.9" height="8" fill="#e6edf3"/>
<rect x="191.5" y="132" width="3.9" height="8" fill="#e6edf3"/>
<rect x="195.4" y="124" width="3.9" height="8" fill="#e6edf3"/>
<rect x="207.1" y="124" width="3.9" height="8" fill="#e6edf3"/>
<rect x="211" y="124" width="3.9" height="8" fill="#e6edf3"/>
<rect x="222.7" y="124" width="3.9" height="16" fill="#e6edf3"/>
<rect x="246.1" y="132" width="3.9" height="8" fill="#e6edf3"/>
<rect x="250" y="132" width="7.8" height="8" fill="#e6edf3"/>
<rect x="257.8" y="124" width="3.9" height="8" fill="#e6edf3"/>
<rect x="277.3" y="124" width="3.9" height="16" fill="#e6edf3"/>
<rect x="281.2" y="124" width="3.9" height="16" fill="#e6edf3"/>
<rect x="285.1" y="124" width="3.9" height="8" fill="#e6edf3"/>
<rect x="289" y="124" width="3.9" height="8" fill="#e6edf3"/>
<rect x="304.6" y="124" width="15.6" height="8" fill="#e6edf3"/>
<rect x="374.8" y="132" width="7.8" height="8" fill="#e6edf3"/>
<rect x="382.6" y="132" width="3.9" height="8" fill="#e6edf3"/>
<rect x="406" y="124" width="3.9" height="16" fill="#e6edf3"/>
<rect x="409.9" y="124" width="3.9" height="8" fill="#e6edf3"/>
<rect x="413.8" y="124" width="3.9" height="16" fill="#e6edf3"/>
<rect x="417.7" y="132" width="3.9" height="8" fill="#e6edf3"/>
<rect x="437.2" y="124" width="7.8" height="8" fill="#e6edf3"/>
<rect x="445" y="124" width="3.9" height="8" fill="#e6edf3"/>
<rect x="448.9" y="132" width="3.9" height="8" fill="#e6edf3"/>
<rect x="452.8" y="132" width="3.9" height="8" fill="#e6edf3"/>
<rect x="476.2" y="124" width="7.8" height="16" fill="#e6edf3"/>
<rect x="484" y="132" width="7.8" height="8" fill="#e6edf3"/>
<rect x="499.6" y="132" width="3.9" height="8" fill="#e6edf3"/>
<rect x="503.5" y="124" width="3.9" height="8" fill="#e6edf3"/>
<rect x="507.4" y="124" width="7.8" height="16" fill="#e6edf3"/>
<rect x="515.2" y="132" width="7.8" height="8" fill="#e6edf3"/>
<text x="39.4" y="136.5" textLength="39" lengthAdjust="spacingAndGlyphs" xml:space="preserve">0.5 ┤</text>
<rect x="113.5" y="140" width="3.9" height="8" fill="#e6edf3"/>
<rect x="117.4" y="140" width="3.9" height="16" fill="#e6edf3"/>
<rect x="121.3" y="140" width="3.9" height="8" fill="#e6edf3"/>
<rect x="125.2" y="140" width="3.9" height="8" fill="#e6edf3"/>
<rect x="129.1" y="140" width="3.9" height="16" fill="#e6edf3"/>
<rect x="148.6" y="140" width="3.9" height="16" fill="#e6edf3"/>
<rect x="156.4" y="140" width="7.8" height="16" fill="#e6edf3"/>
<rect x="168.1" y="148" width="3.9" height="8" fill="#e6edf3"/>
<rect x="183.7" y="140" width="3.9" height="16" fill="#e6edf3"/>
<rect x="187.6" y="148" width="3.9" height="8" fill="#e6edf3"/>
<rect x="191.5" y="140" width="3.9" height="16" fill="#e6edf3"/>
<rect x="195.4" y="140" width="3.9" height="16" fill="#e6edf3"/>
<rect x="214.9" y="140" width="3.9" height="8" fill="#e6edf3"/>
<rect x="218.8" y="140" width="3.9" height="16" fill="#e6edf3"/>
<rect x="222.7" y="140" width="3.9" height="8" fill="#e6edf3"/>
<rect x="226.6" y="140" width="3.9" height="16" fill="#e6edf3"/>
<rect x="246.1" y="140" width="3.9" height="8" fill="#e6edf3"/>
<rect x="261.7" y="140" width="3.9" height="16" fill="#e6edf3"/>
<rect x="285.1" y="148" width="3.9" height="8" fill="#e6edf3"/>
<rect x="289" y="148" width="3.9" height="8" fill="#e6edf3"/>
<rect x="292.9" y="140" width="3.9" height="8" fill="#e6edf3"/>
<rect x="316.3" y="140" width="3.9" height="16" fill="#e6edf3"/>
<rect x="320.2" y="148" width="3.9" height="8" fill="#e6edf3"/>
<rect x="324.1" y="140" width="3.9" height="8" fill="#e6edf3"/>
<rect x="328" y="140" width="3.9" height="8" fill="#e6edf3"/>
<rect x="347.5" y="140" width="3.9" height="8" fill="#e6edf3"/>
<rect x="351.4" y="140" width="7.8" height="8" fill="#e6edf3"/>
<rect x="359.2" y="140" width="3.9" height="8" fill="#e6edf3"/>
<rect x="386.5" y="140" width="3.9" height="8" fill="#e6edf3"/>
<rect x="390.4" y="140" width="3.9" height="8" fill="#e6edf3"/>
<rect x="413.8" y="148" width="7.8" height="8" fill="#e6edf3"/>
<rect x="421.6" y="140" width="3.9" height="16" fill="#e6edf3"/>
<rect x="425.5" y="140" width="3.9" height="8" fill="#e6edf3"/>
<rect x="441.1" y="148" width="3.9" height="8" fill="#e6edf3"/>
<rect x="445" y="140" width="3.9" height="8" fill="#e6edf3"/>
<rect x="448.9" y="140" width="3.9" height="16" fill="#e6edf3"/>
<rect x="452.8" y="140" width="7.8" height="8" fill="#e6edf3"/>
<rect x="472.3" y="140" width="3.9" height="8" fill="#e6edf3"/>
<rect x="480.1" y="140" width="3.9" height="8" fill="#e6edf3"/>
<rect x="484" y="140" width="3.9" height="16" fill="#e6edf3"/>
<rect x="487.9" y="140" width="3.9" height="8" fill="#e6edf3"/>
<rect x="491.8" y="140" width="3.9" height="8" fill="#e6edf3"/>
<rect x="511.3" y="140" width="3.9" height="16" fill="#e6edf3"/>
<rect x="515.2" y="148" width="7.8" height="8" fill="#e6edf3"/>
<rect x="523" y="140" width="3.9" height="8" fill="#e6edf3"/>
<text x="70.6" y="152.5" textLength="7.8" lengthAdjust="spacingAndGlyphs" xml:space="preserve">│</text>
<rect x="117.4" y="156" width="3.9" height="8" fill="#e6edf3"/>
<rect x="121.3" y="164" width="3.9" height="8" fill="#e6edf3"/>
<rect x="125.2" y="164" width="3.9" height="8" fill="#e6edf3"/>
<rect x="129.1" y="156" width="3.9" height="16" fill="#e6edf3"/>
<rect x="133" y="156" width="3.9" height="16" fill="#e6edf3"/>
<rect x="136.9" y="156" width="3.9" height="8" fill="#e6edf3"/>
<rect x="152.5" y="156" width="3.9" height="8" fill="#e6edf3"/>
<rect x="156.4" y="156" width="3.9" height="16" fill="#e6edf3"/>
<rect x="160.3" y="156" width="3.9" height="8" fill="#e6edf3"/>
<rect x="164.2" y="156" width="3.9" height="16" fill="#e6edf3"/>
<rect x="187.6" y="156" width="3.9" height="8" fill="#e6edf3"/>
<rect x="191.5" y="164" width="3.9" height="8" fill="#e6edf3"/>
<rect x="195.4" y="156" width="3.9" height="16" fill="#e6edf3"/>
<rect x="199.3" y="164" width="3.9" height="8" fill="#e6edf3"/>
<rect x="203.2" y="164" width="3.9" height="8" fill="#e6edf3"/>
<rect x="222.7" y="164" width="3.9" height="8" fill="#e6edf3"/>
<rect x="226.6" y="156" width="3.9" height="16" fill="#e6edf3"/>
<rect x="230.5" y="164" width="3.9" height="8" fill="#e6edf3"/>
<rect x="253.9" y="156" width="3.9" height="8" fill="#e6edf3"/>
<rect x="257.8" y="156" width="3.9" height="16" fill="#e6edf3"/>
<rect x="261.7" y="156" width="3.9" height="8" fill="#e6edf3"/>
<rect x="285.1" y="156" width="3.9" height="8" fill="#e6edf3"/>
<rect x="355.3" y="164" width="3.9" height="8" fill="#e6edf3"/>
<rect x="359.2" y="164" width="3.9" height="8" fill="#e6edf3"/>
<rect x="382.6" y="156" width="3.9" height="8" fill="#e6edf3"/>
<rect x="386.5" y="156" width="3.9" height="16" fill="#e6edf3"/>
<rect x="390.4" y="156" width="3.9" height="8" fill="#e6edf3"/>
<rect x="417.7" y="156" width="3.9" height="8" fill="#e6edf3"/>
<rect x="421.6" y="164" width="3.9" height="8" fill="#e6edf3"/>
<rect x="448.9" y="156" width="3.9" height="8" fill="#e6edf3"/>
<rect x="452.8" y="164" width="7.8" height="8" fill="#e6edf3"/>
<rect x="480.1" y="164" width="3.9" height="8" fill="#e6edf3"/>
<rect x="484" y="156" width="7.8" height="16" fill="#e6edf3"/>
<rect x="491.8" y="164" width="7.8" height="8" fill="#e6edf3"/>
<rect x="507.4" y="156" width="7.8" height="8" fill="#e6edf3"/>
<rect x="515.2" y="156" width="3.9" height="8" fill="#e6edf3"/>
<rect x="519.1" y="164" width="3.9" height="8" fill="#e6edf3"/>
<rect x="523" y="156" width="7.8" height="8" fill="#e6edf3"/>
<text x="16" y="168.5" textLength="62.4" lengthAdjust="spacingAndGlyphs" xml:space="preserve">y      │</text>
<rect x="125.2" y="180" width="3.9" height="8" fill="#e6edf3"/>
<rect x="129.1" y="172" width="3.9" height="16" fill="#e6edf3"/>
<rect x="133" y="172" width="3.9" height="16" fill="#e6edf3"/>
<rect x="136.9" y="180" width="3.9" height="8" fill="#e6edf3"/>
<rect x="140.8" y="180" width="7.8" height="8" fill="#e6edf3"/>
<rect x="156.4" y="172" width="7.8" height="8" fill="#e6edf3"/>
<rect x="164.2" y="180" width="3.9" height="8" fill="#e6edf3"/>
<rect x="168.1" y="172" width="3.9" height="16" fill="#e6edf3"/>
<rect x="172" y="172" width="3.9" height="8" fill="#e6edf3"/>
<rect x="195.4" y="172" width="3.9" height="8" fill="#e6edf3"/>
<rect x="199.3" y="180" width="3.9" height="8" fill="#e6edf3"/>
<rect x="226.6" y="172" width="3.9" height="8" fill="#e6edf3"/>
<rect x="230.5" y="180" width="3.9" height="8" fill="#e6edf3"/>
<rect x="234.4" y="180" width="3.9" height="8" fill="#e6edf3"/>
<rect x="261.7" y="172" width="3.9" height="16" fill="#e6edf3"/>
<rect x="265.6" y="180" width="7.8" height="8" fill="#e6edf3"/>
<rect x="292.9" y="172" width="3.9" height="8" fill="#e6edf3"/>
<rect x="296.8" y="172" width="3.9" height="8" fill="#e6edf3"/>
<rect x="328" y="172" width="3.9" height="8" fill="#e6edf3"/>
<rect x="359.2" y="172" width="3.9" height="8" fill="#e6edf3"/>
<rect x="367" y="180" width="3.9" height="8" fill="#e6edf3"/>
<rect x="390.4" y="172" width="7.8" height="16" fill="#e6edf3"/>
<rect x="398.2" y="180" width="3.9" height="8" fill="#e6edf3"/>
<rect x="421.6" y="172" width="3.9" height="8" fill="#e6edf3"/>
<rect x="425.5" y="172" width="3.9" height="16" fill="#e6edf3"/>
<rect x="429.4" y="172" width="3.9" height="8" fill="#e6edf3"/>
<rect x="448.9" y="172" width="3.9" height="8" fill="#e6edf3"/>
<rect x="452.8" y="172" width="3.9" height="8" fill="#e6edf3"/>
<rect x="456.7" y="172" width="3.9" height="16" fill="#e6edf3"/>
<rect x="460.6" y="172" width="3.9" height="8" fill="#e6edf3"/>
<rect x="464.5" y="180" width="3.9" height="8" fill="#e6edf3"/>
<rect x="487.9" y="172" width="3.9" height="16" fill="#e6edf3"/>
<rect x="491.8" y="172" width="7.8" height="16" fill="#e6edf3"/>
<rect x="499.6" y="180" width="3.9" height="8" fill="#e6edf3"/>
<rect x="515.2" y="180" width="3.9" height="8" fill="#e6edf3"/>
<rect x="519.1" y="172" width="3.9" height="16" fill="#e6edf3"/>
<rect x="523" y="172" width="3.9" height="16" fill="#e6edf3"/>
<rect x="526.9" y="172" width="3.9" height="8" fill="#e6edf3"/>
<rect x="530.8" y="180" width="7.8" height="8" fill="#e6edf3"/>
<text x="39.4" y="184.5" textLength="39" lengthAdjust="spacingAndGlyphs" xml:space="preserve">0.0 ┤</text>
<rect x="129.1" y="196" width="3.9" height="8" fill="#e6edf3"/>
<rect x="133" y="188" width="7.8" height="8" fill="#e6edf3"/>
<rect x="140.8" y="196" width="3.9" height="8" fill="#e6edf3"/>
<rect x="160.3" y="196" width="3.9" height="8" fill="#e6edf3"/>
<rect x="164.2" y="196" width="3.9" height="8" fill="#e6edf3"/>
<rect x="168.1" y="188" width="3.9" height="16" fill="#e6edf3"/>
<rect x="172" y="196" width="3.9" height="8" fill="#e6edf3"/>
<rect x="179.8" y="196" width="3.9" height="8" fill="#e6edf3"/>
<rect x="195.4" y="196" width="7.8" height="8" fill="#e6edf3"/>
<rect x="203.2" y="188" width="3.9" height="16" fill="#e6edf3"/>
<rect x="207.1" y="196" width="3.9" height="8" fill="#e6edf3"/>
<rect x="211" y="188" width="3.9" height="8" fill="#e6edf3"/>
<rect x="226.6" y="196" width="3.9" height="8" fill="#e6edf3"/>
<rect x="230.5" y="188" width="3.9" height="16" fill="#e6edf3"/>
<rect x="234.4" y="188" width="7.8" height="8" fill="#e6edf3"/>
<rect x="261.7" y="196" width="3.9" height="8" fill="#e6edf3"/>
<rect x="265.6" y="196" width="3.9" height="8" fill="#e6edf3"/>
<rect x="292.9" y="196" width="3.9" height="8" fill="#e6edf3"/>
<rect x="296.8" y="196" width="7.8" height="8" fill="#e6edf3"/>
<rect x="304.6" y="196" width="3.9" height="8" fill="#e6edf3"/>
<rect x="328" y="196" width="3.9" height="8" fill="#e6edf3"/>
<rect x="331.9" y="188" width="3.9" height="8" fill="#e6edf3"/>
<rect x="335.8" y="188" width="3.9" height="16" fill="#e6edf3"/>
<rect x="359.2" y="196" width="3.9" height="8" fill="#e6edf3"/>
<rect x="363.1" y="188" width="3.9" height="8" fill="#e6edf3"/>
<rect x="367" y="188" width="3.9" height="8" fill="#e6edf3"/>
<rect x="390.4" y="188" width="3.9" height="16" fill="#e6edf3"/>
<rect x="406" y="196" width="3.9" height="8" fill="#e6edf3"/>
<rect x="425.5" y="188" width="3.9" height="16" fill="#e6edf3"/>
<rect x="429.4" y="196" width="3.9" height="8" fill="#e6edf3"/>
<rect x="433.3" y="188" width="3.9" height="16" fill="#e6edf3"/>
<rect x="437.2" y="196" width="3.9" height="8" fill="#e6edf3"/>
<rect x="456.7" y="188" width="3.9" height="16" fill="#e6edf3"/>
<rect x="460.6" y="188" width="3.9" height="16" fill="#e6edf3"/>
<rect x="464.5" y="188" width="3.9" height="8" fill="#e6edf3"/>
<rect x="468.4" y="188" width="3.9" height="16" fill="#e6edf3"/>
<rect x="484" y="188" width="3.9" height="8" fill="#e6edf3"/>
<rect x="491.8" y="188" width="7.8" height="16" fill="#e6edf3"/>
<rect x="503.5" y="188" width="3.9" height="16" fill="#e6edf3"/>
<rect x="523" y="188" width="3.9" height="16" fill="#e6edf3"/>
<rect x="526.9" y="196" width="3.9" height="8" fill="#e6edf3"/>
<rect x="530.8" y="196" width="3.9" height="8" fill="#e6edf3"/>
<rect x="534.7" y="188" width="3.9" height="16" fill="#e6edf3"/>
<rect x="538.6" y="196" width="3.9" height="8" fill="#e6edf3"/>
<text x="70.6" y="200.5" textLength="7.8" lengthAdjust="spacingAndGlyphs" xml:space="preserve">│</text>
<rect x="133" y="204" width="7.8" height="8" fill="#e6edf3"/>
<rect x="140.8" y="204" width="7.8" height="16" fill="#e6edf3"/>
<rect x="148.6" y="212" width="3.9" height="8" fill="#e6edf3"/>
<rect x="152.5" y="204" width="3.9" height="8" fill="#e6edf3"/>
<rect x="164.2" y="204" width="7.8" height="8" fill="#e6edf3"/>
<rect x="172" y="204" width="7.8" height="16" fill="#e6edf3"/>
<rect x="199.3" y="204" width="3.9" height="8" fill="#e6edf3"/>
<rect x="203.2" y="204" width="3.9" height="8" fill="#e6edf3"/>
<rect x="207.1" y="212" width="3.9" height="8" fill="#e6edf3"/>
<rect x="211" y="212" width="7.8" height="8" fill="#e6edf3"/>
<rect x="234.4" y="204" width="3.9" height="8" fill="#e6edf3"/>
<rect x="238.3" y="204" width="3.9" height="16" fill="#e6edf3"/>
<rect x="242.2" y="212" width="3.9" height="8" fill="#e6edf3"/>
<rect x="246.1" y="204" width="3.9" height="16" fill="#e6edf3"/>
<rect x="269.5" y="204" width="3.9" height="8" fill="#e6edf3"/>
<rect x="273.4" y="204" width="7.8" height="8" fill="#e6edf3"/>
<rect x="339.7" y="212" width="3.9" height="8" fill="#e6edf3"/>
<rect x="343.6" y="212" width="7.8" height="8" fill="#e6edf3"/>
<rect x="363.1" y="212" width="3.9" height="8" fill="#e6edf3"/>
<rect x="367" y="212" width="3.9" height="8" fill="#e6edf3"/>
<rect x="370.9" y="204" width="3.9" height="16" fill="#e6edf3"/>
<rect x="374.8" y="204" width="3.9" height="16" fill="#e6edf3"/>
<rect x="394.3" y="212" width="3.9" height="8" fill="#e6edf3"/>
<rect x="398.2" y="204" width="7.8" height="8" fill="#e6edf3"/>
<rect x="406" y="204" width="3.9" height="8" fill="#e6edf3"/>
<rect x="429.4" y="204" width="3.9" height="16" fill="#e6edf3"/>
<rect x="441.1" y="212" width="3.9" height="8" fill="#e6edf3"/>
<rect x="445" y="212" width="3.9" height="8" fill="#e6edf3"/>
<rect x="456.7" y="212" width="3.9" height="8" fill="#e6edf3"/>
<rect x="460.6" y="204" width="3.9" height="8" fill="#e6edf3"/>
<rect x="464.5" y="212" width="3.9" height="8" fill="#e6edf3"/>
<rect x="468.4" y="212" width="3.9" height="8" fill="#e6edf3"/>
<rect x="472.3" y="204" width="3.9" height="16" fill="#e6edf3"/>
<rect x="476.2" y="204" width="3.9" height="16" fill="#e6edf3"/>
<rect x="491.8" y="204" width="3.9" height="16" fill="#e6edf3"/>
<rect x="495.7" y="204" width="3.9" height="8" fill="#e6edf3"/>
<rect x="499.6" y="204" width="3.9" height="16" fill="#e6edf3"/>
<rect x="503.5" y="204" width="3.9" height="8" fill="#e6edf3"/>
<rect x="507.4" y="204" width="3.9" height="8" fill="#e6edf3"/>
<rect x="511.3" y="212" width="3.9" height="8" fill="#e6edf3"/>
<rect x="523" y="204" width="3.9" height="16" fill="#e6edf3"/>
<rect x="530.8" y="204" width="3.9" height="16" fill="#e6edf3"/>
<rect x="542.5" y="204" width="3.9" height="16" fill="#e6edf3"/>
<text x="31.6" y="216.5" textLength="46.8" lengthAdjust="spacingAndGlyphs" xml:space="preserve">-0.5 ┤</text>
<rect x="129.1" y="220" width="3.9" height="8" fill="#e6edf3"/>
<rect x="133" y="228" width="7.8" height="8" fill="#e6edf3"/>
<rect x="140.8" y="228" width="3.9" height="8" fill="#e6edf3"/>
<rect x="144.7" y="220" width="3.9" height="16" fill="#e6edf3"/>
<rect x="148.6" y="228" width="7.8" height="8" fill="#e6edf3"/>
<rect x="156.4" y="220" width="3.9" height="16" fill="#e6edf3"/>
<rect x="160.3" y="220" width="3.9" height="8" fill="#e6edf3"/>
<rect x="164.2" y="220" width="3.9" height="8" fill="#e6edf3"/>
<rect x="168.1" y="228" width="3.9" height="8" fill="#e6edf3"/>
<rect x="172" y="220" width="3.9" height="16" fill="#e6edf3"/>
<rect x="175.9" y="220" width="3.9" height="8" fill="#e6edf3"/>
<rect x="179.8" y="220" width="3.9" height="8" fill="#e6edf3"/>
<rect x="183.7" y="220" width="3.9" height="16" fill="#e6edf3"/>
<rect x="187.6" y="220" width="3.9" height="16" fill="#e6edf3"/>
<rect x="195.4" y="220" width="7.8" height="8" fill="#e6edf3"/>
<rect x="203.2" y="228" width="3.9" height="8" fill="#e6edf3"/>
<rect x="207.1" y="220" width="3.9" height="16" fill="#e6edf3"/>
<rect x="211" y="220" width="7.8" height="8" fill="#e6edf3"/>
<rect x="218.8" y="220" width="3.9" height="8" fill="#e6edf3"/>
<rect x="226.6" y="220" width="7.8" height="8" fill="#e6edf3"/>
<rect x="234.4" y="228" width="15.6" height="8" fill="#e6edf3"/>
<rect x="253.9" y="228" width="3.9" height="8" fill="#e6edf3"/>
<rect x="261.7" y="220" width="3.9" height="8" fill="#e6edf3"/>
<rect x="265.6" y="220" width="7.8" height="8" fill="#e6edf3"/>
<rect x="273.4" y="228" width="15.6" height="8" fill="#e6edf3"/>
<rect x="292.9" y="220" width="3.9" height="8" fill="#e6edf3"/>
<rect x="296.8" y="220" width="7.8" height="8" fill="#e6edf3"/>
<rect x="304.6" y="220" width="3.9" height="8" fill="#e6edf3"/>
<rect x="308.5" y="220" width="3.9" height="16" fill="#e6edf3"/>
<rect x="312.4" y="220" width="3.9" height="16" fill="#e6edf3"/>
<rect x="316.3" y="220" width="3.9" height="8" fill="#e6edf3"/>
<rect x="328" y="220" width="7.8" height="8" fill="#e6edf3"/>
<rect x="335.8" y="220" width="3.9" height="8" fill="#e6edf3"/>
<rect x="343.6" y="220" width="3.9" height="8" fill="#e6edf3"/>
<rect x="359.2" y="220" width="3.9" height="8" fill="#e6edf3"/>
<rect x="374.8" y="228" width="15.6" height="8" fill="#e6edf3"/>
<rect x="390.4" y="220" width="3.9" height="8" fill="#e6edf3"/>
<rect x="402.1" y="228" width="3.9" height="8" fill="#e6edf3"/>
<rect x="406" y="228" width="3.9" height="8" fill="#e6edf3"/>
<rect x="409.9" y="220" width="3.9" height="16" fill="#e6edf3"/>
<rect x="413.8" y="220" width="3.9" height="16" fill="#e6edf3"/>
<rect x="425.5" y="220" width="3.9" height="8" fill="#e6edf3"/>
<rect x="433.3" y="220" width="3.9" height="16" fill="#e6edf3"/>
<rect x="437.2" y="220" width="3.9" height="16" fill="#e6edf3"/>
<rect x="441.1" y="220" width="3.9" height="8" fill="#e6edf3"/>
<rect x="445" y="220" width="3.9" height="16" fill="#e6edf3"/>
<rect x="456.7" y="220" width="3.9" height="8" fill="#e6edf3"/>
<rect x="464.5" y="228" width="3.9" height="8" fill="#e6edf3"/>
<rect x="468.4" y="220" width="3.9" height="8" fill="#e6edf3"/>
<rect x="476.2" y="220" width="3.9" height="8" fill="#e6edf3"/>
<rect x="480.1" y="228" width="3.9" height="8" fill="#e6edf3"/>
<rect x="484" y="228" width="3.9" height="8" fill="#e6edf3"/>
<rect x="491.8" y="220" width="3.9" height="8" fill="#e6edf3"/>
<rect x="495.7" y="228" width="3.9" height="8" fill="#e6edf3"/>
<rect x="499.6" y="220" width="3.9" height="8" fill="#e6edf3"/>
<rect x="507.4" y="228" width="7.8" height="8" fill="#e6edf3"/>
<rect x="515.2" y="220" width="3.9" height="8" fill="#e6edf3"/>
<rect x="519.1" y="228" width="3.9" height="8" fill="#e6edf3"/>
<rect x="523" y="220" width="3.9" height="8" fill="#e6edf3"/>
<rect x="526.9" y="220" width="3.9" height="16" fill="#e6edf3"/>
<rect x="530.8" y="228" width="3.9" height="8" fill="#e6edf3"/>
<rect x="534.7" y="220" width="3.9" height="8" fill="#e6edf3"/>
<rect x="538.6" y="220" width="3.9" height="16" fill="#e6edf3"/>
<rect x="546.4" y="220" width="3.9" height="8" fill="#e6edf3"/>
<rect x="550.3" y="228" width="3.9" height="8" fill="#e6edf3"/>
<text x="70.6" y="232.5" textLength="7.8" lengthAdjust="spacingAndGlyphs" xml:space="preserve">│</text>
<rect x="129.1" y="244" width="3.9" height="8" fill="#e6edf3"/>
<rect x="133" y="244" width="3.9" height="8" fill="#e6edf3"/>
<rect x="140.8" y="236" width="7.8" height="8" fill="#e6edf3"/>
<rect x="148.6" y="244" width="3.9" height="8" fill="#e6edf3"/>
<rect x="152.5" y="236" width="3.9" height="16" fill="#e6edf3"/>
<rect x="156.4" y="236" width="3.9" height="8" fill="#e6edf3"/>
<rect x="160.3" y="244" width="3.9" height="8" fill="#e6edf3"/>
<rect x="164.2" y="244" width="3.9" height="8" fill="#e6edf3"/>
<rect x="175.9" y="236" width="3.9" height="8" fill="#e6edf3"/>
<rect x="179.8" y="236" width="3.9" height="8" fill="#e6edf3"/>
<rect x="183.7" y="244" width="3.9" height="8" fill="#e6edf3"/>
<rect x="187.6" y="244" width="3.9" height="8" fill="#e6edf3"/>
<rect x="195.4" y="244" width="7.8" height="8" fill="#e6edf3"/>
<rect x="211" y="236" width="3.9" height="8" fill="#e6edf3"/>
<rect x="214.9" y="236" width="3.9" height="16" fill="#e6edf3"/>
<rect x="218.8" y="236" width="7.8" height="16" fill="#e6edf3"/>
<rect x="226.6" y="244" width="7.8" height="8" fill="#e6edf3"/>
<rect x="234.4" y="244" width="3.9" height="8" fill="#e6edf3"/>
<rect x="246.1" y="236" width="3.9" height="8" fill="#e6edf3"/>
<rect x="250" y="236" width="7.8" height="8" fill="#e6edf3"/>
<rect x="257.8" y="236" width="3.9" height="8" fill="#e6edf3"/>
<rect x="261.7" y="244" width="3.9" height="8" fill="#e6edf3"/>
<rect x="265.6" y="244" width="15.6" height="8" fill="#e6edf3"/>
<rect x="289" y="244" width="54.6" height="8" fill="#e6edf3"/>
<rect x="343.6" y="236" width="7.8" height="8" fill="#e6edf3"/>
<rect x="351.4" y="236" width="3.9" height="16" fill="#e6edf3"/>
<rect x="355.3" y="236" width="3.9" height="8" fill="#e6edf3"/>
<rect x="359.2" y="244" width="7.8" height="8" fill="#e6edf3"/>
<rect x="367" y="236" width="15.6" height="8" fill="#e6edf3"/>
<rect x="382.6" y="236" width="3.9" height="8" fill="#e6edf3"/>
<rect x="390.4" y="244" width="3.9" height="8" fill="#e6edf3"/>
<rect x="394.3" y="236" width="3.9" height="8" fill="#e6edf3"/>
<rect x="398.2" y="236" width="3.9" height="8" fill="#e6edf3"/>
<rect x="421.6" y="244" width="7.8" height="8" fill="#e6edf3"/>
<rect x="429.4" y="236" width="3.9" height="8" fill="#e6edf3"/>
<rect x="441.1" y="244" width="3.9" height="8" fill="#e6edf3"/>
<rect x="445" y="244" width="7.8" height="8" fill="#e6edf3"/>
<rect x="452.8" y="236" width="7.8" height="16" fill="#e6edf3"/>
<rect x="460.6" y="236" width="3.9" height="8" fill="#e6edf3"/>
<rect x="468.4" y="236" width="3.9" height="8" fill="#e6edf3"/>
<rect x="472.3" y="236" width="3.9" height="16" fill="#e6edf3"/>
<rect x="476.2" y="236" width="7.8" height="8" fill="#e6edf3"/>
<rect x="484" y="236" width="3.9" height="16" fill="#e6edf3"/>
<rect x="491.8" y="244" width="3.9" height="8" fill="#e6edf3"/>
<rect x="495.7" y="236" width="3.9" height="8" fill="#e6edf3"/>
<rect x="499.6" y="236" width="3.9" height="8" fill="#e6edf3"/>
<rect x="503.5" y="236" width="3.9" height="16" fill="#e6edf3"/>
<rect x="507.4" y="236" width="3.9" height="8" fill="#e6edf3"/>
<rect x="519.1" y="236" width="3.9" height="8" fill="#e6edf3"/>
<rect x="523" y="236" width="3.9" height="16" fill="#e6edf3"/>
<rect x="530.8" y="244" width="3.9" height="8" fill="#e6edf3"/>
<rect x="534.7" y="236" width="3.9" height="8" fill="#e6edf3"/>
<text x="31.6" y="248.5" textLength="46.8" lengthAdjust="spacingAndGlyphs" xml:space="preserve">-1.0 ┤</text>
<rect x="136.9" y="252" width="3.9" height="8" fill="#e6edf3"/>
<rect x="140.8" y="252" width="3.9" height="8" fill="#e6edf3"/>
<rect x="144.7" y="260" width="3.9" height="8" fill="#e6edf3"/>
<rect x="148.6" y="252" width="3.9" height="16" fill="#e6edf3"/>
<rect x="152.5" y="252" width="3.9" height="8" fill="#e6edf3"/>
<rect x="156.4" y="252" width="3.9" height="8" fill="#e6edf3"/>
<rect x="160.3" y="252" width="3.9" height="16" fill="#e6edf3"/>
<rect x="164.2" y="252" width="7.8" height="16" fill="#e6edf3"/>
<rect x="172" y="252" width="7.8" height="8" fill="#e6edf3"/>
<rect x="179.8" y="252" width="7.8" height="16" fill="#e6edf3"/>
<rect x="187.6" y="252" width="3.9" height="16" fill="#e6edf3"/>
<rect x="191.5" y="252" width="3.9" height="8" fill="#e6edf3"/>
<rect x="195.4" y="252" width="3.9" height="8" fill="#e6edf3"/>
<rect x="199.3" y="260" width="3.9" height="8" fill="#e6edf3"/>
<rect x="203.2" y="252" width="15.6" height="8" fill="#e6edf3"/>
<rect x="218.8" y="260" width="15.6" height="8" fill="#e6edf3"/>
<rect x="234.4" y="260" width="3.9" height="8" fill="#e6edf3"/>
<rect x="238.3" y="252" width="3.9" height="8" fill="#e6edf3"/>
<rect x="242.2" y="252" width="7.8" height="8" fill="#e6edf3"/>
<rect x="250" y="252" width="3.9" height="8" fill="#e6edf3"/>
<rect x="253.9" y="252" width="3.9" height="16" fill="#e6edf3"/>
<rect x="257.8" y="252" width="7.8" height="16" fill="#e6edf3"/>
<rect x="265.6" y="260" width="3.9" height="8" fill="#e6edf3"/>
<rect x="281.2" y="252" width="15.6" height="8" fill="#e6edf3"/>
<rect x="296.8" y="252" width="3.9" height="8" fill="#e6edf3"/>
<rect x="316.3" y="252" width="3.9" height="8" fill="#e6edf3"/>
<rect x="320.2" y="252" width="3.9" height="8" fill="#e6edf3"/>
<rect x="347.5" y="260" width="3.9" height="8" fill="#e6edf3"/>
<rect x="351.4" y="260" width="31.2" height="8" fill="#e6edf3"/>
<rect x="382.6" y="252" width="3.9" height="16" fill="#e6edf3"/>
<rect x="386.5" y="252" width="3.9" height="8" fill="#e6edf3"/>
<rect x="390.4" y="252" width="3.9" height="16" fill="#e6edf3"/>
<rect x="394.3" y="252" width="3.9" height="8" fill="#e6edf3"/>
<rect x="398.2" y="260" width="7.8" height="8" fill="#e6edf3"/>
<rect x="406" y="260" width="3.9" height="8" fill="#e6edf3"/>
<rect x="409.9" y="252" width="3.9" height="8" fill="#e6edf3"/>
<rect x="413.8" y="252" width="7.8" height="8" fill="#e6edf3"/>
<rect x="421.6" y="252" width="3.9" height="16" fill="#e6edf3"/>
<rect x="429.4" y="260" width="7.8" height="8" fill="#e6edf3"/>
<rect x="437.2" y="252" width="7.8" height="8" fill="#e6edf3"/>
<rect x="452.8" y="252" width="3.9" height="8" fill="#e6edf3"/>
<rect x="460.6" y="260" width="7.8" height="8" fill="#e6edf3"/>
<rect x="468.4" y="252" width="3.9" height="8" fill="#e6edf3"/>
<rect x="495.7" y="260" width="3.9" height="8" fill="#e6edf3"/>
<rect x="499.6" y="252" width="3.9" height="8" fill="#e6edf3"/>
<rect x="526.9" y="252" width="3.9" height="16" fill="#e6edf3"/>
<text x="70.6" y="264.5" textLength="7.8" lengthAdjust="spacingAndGlyphs" xml:space="preserve">│</text>
<rect x="129.1" y="268" width="3.9" height="8" fill="#e6edf3"/>
<rect x="133" y="268" width="3.9" height="8" fill="#e6edf3"/>
<rect x="136.9" y="276" width="3.9" height="8" fill="#e6edf3"/>
<rect x="140.8" y="276" width="7.8" height="8" fill="#e6edf3"/>
<rect x="152.5" y="268" width="3.9" height="8" fill="#e6edf3"/>
<rect x="156.4" y="268" width="7.8" height="8" fill="#e6edf3"/>
<rect x="164.2" y="268" width="3.9" height="16" fill="#e6edf3"/>
<rect x="168.1" y="276" width="3.9" height="8" fill="#e6edf3"/>
<rect x="172" y="268" width="3.9" height="16" fill="#e6edf3"/>
<rect x="175.9" y="276" width="3.9" height="8" fill="#e6edf3"/>
<rect x="179.8" y="276" width="3.9" height="8" fill="#e6edf3"/>
<rect x="187.6" y="276" width="3.9" height="8" fill="#e6edf3"/>
<rect x="191.5" y="268" width="3.9" height="16" fill="#e6edf3"/>
<rect x="195.4" y="268" width="7.8" height="16" fill="#e6edf3"/>
<rect x="203.2" y="268" width="3.9" height="16" fill="#e6edf3"/>
<rect x="207.1" y="276" width="3.9" height="8" fill="#e6edf3"/>
<rect x="211" y="276" width="7.8" height="8" fill="#e6edf3"/>
<rect x="218.8" y="276" width="3.9" height="8" fill="#e6edf3"/>
<rect x="222.7" y="268" width="3.9" height="8" fill="#e6edf3"/>
<rect x="226.6" y="268" width="15.6" height="8" fill="#e6edf3"/>
<rect x="242.2" y="276" width="15.6" height="8" fill="#e6edf3"/>
<rect x="257.8" y="276" width="3.9" height="8" fill="#e6edf3"/>
<rect x="261.7" y="268" width="3.9" height="16" fill="#e6edf3"/>
<rect x="265.6" y="268" width="7.8" height="16" fill="#e6edf3"/>
<rect x="273.4" y="268" width="7.8" height="8" fill="#e6edf3"/>
<rect x="281.2" y="268" width="3.9" height="8" fill="#e6edf3"/>
<rect x="285.1" y="276" width="3.9" height="8" fill="#e6edf3"/>
<rect x="289" y="276" width="3.9" height="8" fill="#e6edf3"/>
<rect x="292.9" y="268" width="3.9" height="16" fill="#e6edf3"/>
<rect x="296.8" y="268" width="7.8" height="16" fill="#e6edf3"/>
<rect x="304.6" y="268" width="3.9" height="16" fill="#e6edf3"/>
<rect x="308.5" y="268" width="3.9" height="8" fill="#e6edf3"/>
<rect x="312.4" y="268" width="7.8" height="8" fill="#e6edf3"/>
<rect x="320.2" y="268" width="3.9" height="8" fill="#e6edf3"/>
<rect x="324.1" y="268" width="3.9" height="16" fill="#e6edf3"/>
<rect x="328" y="268" width="3.9" height="16" fill="#e6edf3"/>
<rect x="331.9" y="268" width="3.9" height="8" fill="#e6edf3"/>
<rect x="335.8" y="268" width="7.8" height="8" fill="#e6edf3"/>
<rect x="343.6" y="268" width="3.9" height="8" fill="#e6edf3"/>
<rect x="359.2" y="268" width="7.8" height="8" fill="#e6edf3"/>
<rect x="367" y="268" width="3.9" height="8" fill="#e6edf3"/>
<rect x="390.4" y="268" width="7.8" height="8" fill="#e6edf3"/>
<rect x="425.5" y="268" width="3.9" height="8" fill="#e6edf3"/>
<rect x="456.7" y="268" width="3.9" height="8" fill="#e6edf3"/>
<rect x="491.8" y="268" width="3.9" height="8" fill="#e6edf3"/>
<rect x="523" y="268" width="3.9" height="8" fill="#e6edf3"/>
<text x="31.6" y="280.5" textLength="46.8" lengthAdjust="spacingAndGlyphs" xml:space="preserve">-1.5 ┤</text>
<rect x="148.6" y="284" width="7.8" height="8" fill="#e6edf3"/>
<rect x="156.4" y="284" width="3.9" height="8" fill="#e6edf3"/>
<rect x="160.3" y="284" width="3.9" height="16" fill="#e6edf3"/>
<rect x="164.2" y="284" width="7.8" height="16" fill="#e6edf3"/>
<rect x="172" y="284" width="7.8" height="8" fill="#e6edf3"/>
<rect x="179.8" y="292" width="3.9" height="8" fill="#e6edf3"/>
<rect x="183.7" y="284" width="3.9" height="8" fill="#e6edf3"/>
<rect x="187.6" y="284" width="7.8" height="8" fill="#e6edf3"/>
<rect x="195.4" y="284" width="3.9" height="8" fill="#e6edf3"/>
<rect x="199.3" y="292" width="3.9" height="8" fill="#e6edf3"/>
<rect x="203.2" y="292" width="3.9" height="8" fill="#e6edf3"/>
<rect x="207.1" y="284" width="3.9" height="16" fill="#e6edf3"/>
<rect x="211" y="292" width="7.8" height="8" fill="#e6edf3"/>
<rect x="222.7" y="284" width="3.9" height="8" fill="#e6edf3"/>
<rect x="226.6" y="284" width="3.9" height="8" fill="#e6edf3"/>
<rect x="230.5" y="284" width="3.9" height="16" fill="#e6edf3"/>
<rect x="234.4" y="284" width="7.8" height="16" fill="#e6edf3"/>
<rect x="242.2" y="284" width="3.9" height="16" fill="#e6edf3"/>
<rect x="246.1" y="292" width="3.9" height="8" fill="#e6edf3"/>
<rect x="261.7" y="284" width="3.9" height="8" fill="#e6edf3"/>
<rect x="265.6" y="284" width="15.6" height="8" fill="#e6edf3"/>
<rect x="292.9" y="284" width="3.9" height="8" fill="#e6edf3"/>
<rect x="296.8" y="284" width="3.9" height="8" fill="#e6edf3"/>
<text x="70.6" y="296.5" textLength="7.8" lengthAdjust="spacingAndGlyphs" xml:space="preserve">│</text>
<rect x="164.2" y="308" width="7.8" height="8" fill="#e6edf3"/>
<rect x="172" y="300" width="15.6" height="16" fill="#e6edf3"/>
<rect x="187.6" y="308" width="3.9" height="8" fill="#e6edf3"/>
<rect x="195.4" y="300" width="23.4" height="8" fill="#e6edf3"/>
<rect x="218.8" y="300" width="3.9" height="8" fill="#e6edf3"/>
<text x="31.6" y="312.5" textLength="46.8" lengthAdjust="spacingAndGlyphs" xml:space="preserve">-2.0 ┤</text>
<text x="70.6" y="328.5" textLength="507" lengthAdjust="spacingAndGlyphs" xml:space="preserve">└┬─────────┬──────────┬──────────┬─────────┬──────────┬─────────┬</text>
<text x="70.6" y="344.5" textLength="507" lengthAdjust="spacingAndGlyphs" xml:space="preserve">-3        -2         -1          0         1          2         3</text>
<text x="328" y="360.5" textLength="7.8" lengthAdjust="spacingAndGlyphs" xml:space="preserve">x</text>
</svg>
