<svg xmlns="http://www.w3.org/2000/svg" width="546.8" height="376" viewBox="0 0 546.8 376" font-family="ui-monospace,SFMono-Regular,Menlo,Monaco,Consolas,monospace" font-size="13" fill="#e6edf3" shape-rendering="crispEdges">
<rect width="546.8" height="376" rx="8" fill="#0d1117"/>
<text x="86.2" y="24.5" textLength="366.6" lengthAdjust="spacingAndGlyphs" xml:space="preserve">flipper length by species: cloud, box, and rain</text>
<rect x="445" y="36" width="3.9" height="8" fill="#0000ee"/>
<text x="31.6" y="40.5" textLength="39" lengthAdjust="spacingAndGlyphs" xml:space="preserve">240 ┤</text>
<rect x="445" y="44" width="7.8" height="16" fill="#0000ee"/>
<rect x="452.8" y="52" width="3.9" height="8" fill="#0000ee"/>
<text x="62.8" y="56.5" textLength="7.8" lengthAdjust="spacingAndGlyphs" xml:space="preserve">│</text>
<rect x="386.5" y="60" width="3.9" height="16" fill="#cd0000"/>
<rect x="390.4" y="68" width="7.8" height="8" fill="#cd0000"/>
<rect x="409.9" y="60" width="3.9" height="8" fill="#00cdcd"/>
<rect x="413.8" y="60" width="15.6" height="8" fill="#00cdcd"/>
<rect x="429.4" y="60" width="3.9" height="16" fill="#00cdcd"/>
<rect x="433.3" y="60" width="3.9" height="8" fill="#00cdcd"/>
<rect x="437.2" y="60" width="7.8" height="8" fill="#00cdcd"/>
<rect x="445" y="60" width="7.8" height="16" fill="#00cdcd"/>
<rect x="452.8" y="60" width="7.8" height="16" fill="#0000ee"/>
<rect x="460.6" y="68" width="7.8" height="8" fill="#0000ee"/>
<text x="31.6" y="72.5" textLength="39" lengthAdjust="spacingAndGlyphs" xml:space="preserve">230 ┤</text>
<rect x="386.5" y="76" width="3.9" height="16" fill="#cd0000"/>
<rect x="390.4" y="76" width="3.9" height="16" fill="#cd0000"/>
<rect x="394.3" y="84" width="3.9" height="8" fill="#cd0000"/>
<rect x="398.2" y="76" width="3.9" height="16" fill="#cd0000"/>
<rect x="429.4" y="76" width="3.9" height="16" fill="#00cdcd"/>
<rect x="445" y="76" width="23.4" height="16" fill="#0000ee"/>
<text x="62.8" y="88.5" textLength="7.8" lengthAdjust="spacingAndGlyphs" xml:space="preserve">│</text>
<rect x="386.5" y="92" width="3.9" height="16" fill="#cd0000"/>
<rect x="390.4" y="92" width="7.8" height="16" fill="#cd0000"/>
<rect x="398.2" y="92" width="3.9" height="16" fill="#00cdcd"/>
<rect x="402.1" y="100" width="3.9" height="8" fill="#00cdcd"/>
<rect x="406" y="100" width="23.4" height="8" fill="#00cdcd"/>
<rect x="429.4" y="92" width="3.9" height="16" fill="#00cdcd"/>
<rect x="433.3" y="100" width="3.9" height="8" fill="#00cdcd"/>
<rect x="437.2" y="100" width="7.8" height="8" fill="#00cdcd"/>
<rect x="445" y="92" width="23.4" height="16" fill="#00cdcd"/>
<rect x="468.4" y="92" width="7.8" height="16" fill="#0000ee"/>
<rect x="476.2" y="100" width="7.8" height="8" fill="#0000ee"/>
<text x="62.8" y="104.5" textLength="7.8" lengthAdjust="spacingAndGlyphs" xml:space="preserve">│</text>
<rect x="304.6" y="108" width="3.9" height="16" fill="#00cd00"/>
<rect x="386.5" y="108" width="3.9" height="16" fill="#cd0000"/>
<rect x="390.4" y="108" width="7.8" height="16" fill="#cd0000"/>
<rect x="398.2" y="108" width="70.2" height="16" fill="#00cdcd"/>
<rect x="468.4" y="108" width="23.4" height="16" fill="#0000ee"/>
<rect x="491.8" y="116" width="3.9" height="8" fill="#0000ee"/>
<text x="31.6" y="120.5" textLength="39" lengthAdjust="spacingAndGlyphs" xml:space="preserve">220 ┤</text>
<rect x="164.2" y="124" width="3.9" height="16" fill="#00cdcd"/>
<rect x="304.6" y="124" width="7.8" height="16" fill="#00cd00"/>
<rect x="312.4" y="132" width="3.9" height="8" fill="#00cd00"/>
<rect x="386.5" y="124" width="3.9" height="8" fill="#cd0000"/>
<rect x="390.4" y="124" width="7.8" height="8" fill="#cd0000"/>
<rect x="468.4" y="124" width="31.2" height="16" fill="#0000ee"/>
<text x="62.8" y="136.5" textLength="7.8" lengthAdjust="spacingAndGlyphs" xml:space="preserve">│</text>
<text x="398.2" y="136.5" fill="#00cdcd" textLength="70.2" lengthAdjust="spacingAndGlyphs" xml:space="preserve">━━━━━━━━━</text>
<rect x="117.4" y="148" width="3.9" height="8" fill="#cdcd00"/>
<rect x="164.2" y="140" width="7.8" height="16" fill="#00cdcd"/>
<rect x="246.1" y="140" width="3.9" height="8" fill="#cd00cd"/>
<rect x="257.8" y="148" width="7.8" height="8" fill="#cd00cd"/>
<rect x="265.6" y="148" width="3.9" height="8" fill="#00cdcd"/>
<rect x="269.5" y="140" width="3.9" height="8" fill="#00cdcd"/>
<rect x="273.4" y="140" width="15.6" height="8" fill="#00cdcd"/>
<rect x="289" y="140" width="3.9" height="16" fill="#00cdcd"/>
<rect x="292.9" y="140" width="3.9" height="8" fill="#00cdcd"/>
<rect x="296.8" y="140" width="7.8" height="8" fill="#00cdcd"/>
<rect x="304.6" y="140" width="7.8" height="16" fill="#00cdcd"/>
<rect x="312.4" y="140" width="3.9" height="16" fill="#00cd00"/>
<rect x="316.3" y="148" width="3.9" height="8" fill="#00cd00"/>
<rect x="386.5" y="148" width="3.9" height="8" fill="#cd0000"/>
<rect x="394.3" y="140" width="3.9" height="8" fill="#cd0000"/>
<rect x="398.2" y="140" width="15.6" height="16" fill="#00cdcd"/>
<rect x="413.8" y="140" width="3.9" height="16" fill="#00cdcd"/>
<rect x="417.7" y="140" width="3.9" height="8" fill="#00cdcd"/>
<rect x="421.6" y="140" width="7.8" height="8" fill="#00cdcd"/>
<rect x="429.4" y="140" width="3.9" height="16" fill="#00cdcd"/>
<rect x="433.3" y="140" width="3.9" height="8" fill="#00cdcd"/>
<rect x="437.2" y="140" width="7.8" height="8" fill="#00cdcd"/>
<rect x="445" y="140" width="23.4" height="16" fill="#00cdcd"/>
<rect x="468.4" y="140" width="15.6" height="16" fill="#0000ee"/>
<rect x="484" y="140" width="3.9" height="16" fill="#0000ee"/>
<rect x="487.9" y="140" width="3.9" height="8" fill="#0000ee"/>
<rect x="491.8" y="140" width="3.9" height="8" fill="#0000ee"/>
<text x="31.6" y="152.5" textLength="39" lengthAdjust="spacingAndGlyphs" xml:space="preserve">210 ┤</text>
<rect x="129.1" y="156" width="3.9" height="16" fill="#00cdcd"/>
<rect x="133" y="156" width="15.6" height="8" fill="#00cdcd"/>
<rect x="148.6" y="156" width="3.9" height="16" fill="#00cdcd"/>
<rect x="152.5" y="156" width="3.9" height="8" fill="#00cdcd"/>
<rect x="156.4" y="156" width="7.8" height="8" fill="#00cdcd"/>
<rect x="164.2" y="156" width="7.8" height="16" fill="#00cdcd"/>
<rect x="246.1" y="156" width="3.9" height="16" fill="#cd00cd"/>
<rect x="257.8" y="164" width="3.9" height="8" fill="#cd00cd"/>
<rect x="265.6" y="164" width="3.9" height="8" fill="#cd00cd"/>
<rect x="289" y="156" width="3.9" height="16" fill="#00cdcd"/>
<rect x="304.6" y="156" width="15.6" height="16" fill="#00cd00"/>
<rect x="320.2" y="156" width="3.9" height="16" fill="#00cd00"/>
<rect x="324.1" y="164" width="3.9" height="8" fill="#00cd00"/>
<rect x="386.5" y="156" width="3.9" height="8" fill="#cd0000"/>
<rect x="402.1" y="156" width="3.9" height="8" fill="#cd0000"/>
<rect x="406" y="156" width="7.8" height="8" fill="#cd0000"/>
<rect x="429.4" y="156" width="3.9" height="16" fill="#00cdcd"/>
<rect x="445" y="156" width="23.4" height="16" fill="#0000ee"/>
<rect x="468.4" y="156" width="7.8" height="8" fill="#0000ee"/>
<rect x="476.2" y="156" width="3.9" height="8" fill="#0000ee"/>
<text x="16" y="168.5" textLength="54.6" lengthAdjust="spacingAndGlyphs" xml:space="preserve">m     │</text>
<rect x="113.5" y="180" width="3.9" height="8" fill="#cdcd00"/>
<rect x="121.3" y="172" width="3.9" height="8" fill="#cdcd00"/>
<rect x="129.1" y="180" width="3.9" height="8" fill="#cdcd00"/>
<rect x="148.6" y="172" width="3.9" height="16" fill="#00cdcd"/>
<rect x="164.2" y="172" width="7.8" height="16" fill="#00cdcd"/>
<rect x="172" y="172" width="3.9" height="16" fill="#00cdcd"/>
<rect x="175.9" y="180" width="3.9" height="8" fill="#00cdcd"/>
<rect x="246.1" y="180" width="3.9" height="8" fill="#cd00cd"/>
<rect x="250" y="180" width="3.9" height="8" fill="#cd00cd"/>
<rect x="253.9" y="172" width="3.9" height="8" fill="#cd00cd"/>
<rect x="257.8" y="172" width="3.9" height="16" fill="#00cdcd"/>
<rect x="261.7" y="180" width="3.9" height="8" fill="#00cdcd"/>
<rect x="265.6" y="180" width="23.4" height="8" fill="#00cdcd"/>
<rect x="289" y="172" width="3.9" height="16" fill="#00cdcd"/>
<rect x="292.9" y="180" width="3.9" height="8" fill="#00cdcd"/>
<rect x="296.8" y="180" width="7.8" height="8" fill="#00cdcd"/>
<rect x="304.6" y="172" width="23.4" height="16" fill="#00cdcd"/>
<rect x="328" y="172" width="7.8" height="16" fill="#00cd00"/>
<rect x="335.8" y="180" width="7.8" height="8" fill="#00cd00"/>
<rect x="406" y="172" width="39" height="8" fill="#00cdcd"/>
<rect x="445" y="172" width="7.8" height="16" fill="#00cdcd"/>
<rect x="452.8" y="172" width="3.9" height="8" fill="#0000ee"/>
<text x="16" y="184.5" textLength="54.6" lengthAdjust="spacingAndGlyphs" xml:space="preserve">m     │</text>
<rect x="113.5" y="188" width="3.9" height="8" fill="#cdcd00"/>
<rect x="117.4" y="196" width="3.9" height="8" fill="#cdcd00"/>
<rect x="121.3" y="188" width="3.9" height="16" fill="#cdcd00"/>
<rect x="125.2" y="188" width="3.9" height="16" fill="#cdcd00"/>
<rect x="148.6" y="188" width="3.9" height="16" fill="#00cdcd"/>
<rect x="164.2" y="188" width="23.4" height="16" fill="#00cdcd"/>
<rect x="187.6" y="196" width="7.8" height="8" fill="#00cdcd"/>
<rect x="195.4" y="196" width="3.9" height="8" fill="#00cdcd"/>
<rect x="246.1" y="196" width="3.9" height="8" fill="#cd00cd"/>
<rect x="250" y="188" width="3.9" height="16" fill="#cd00cd"/>
<rect x="253.9" y="196" width="3.9" height="8" fill="#cd00cd"/>
<rect x="257.8" y="188" width="70.2" height="16" fill="#00cdcd"/>
<rect x="328" y="188" width="23.4" height="16" fill="#00cd00"/>
<rect x="351.4" y="196" width="7.8" height="8" fill="#00cd00"/>
<rect x="445" y="188" width="3.9" height="16" fill="#0000ee"/>
<text x="31.6" y="200.5" textLength="39" lengthAdjust="spacingAndGlyphs" xml:space="preserve">200 ┤</text>
<rect x="105.7" y="204" width="3.9" height="16" fill="#cdcd00"/>
<rect x="109.6" y="204" width="3.9" height="16" fill="#cdcd00"/>
<rect x="113.5" y="204" width="3.9" height="8" fill="#cdcd00"/>
<rect x="117.4" y="204" width="85.8" height="16" fill="#00cdcd"/>
<rect x="203.2" y="212" width="7.8" height="8" fill="#00cdcd"/>
<rect x="246.1" y="212" width="3.9" height="8" fill="#cd00cd"/>
<rect x="250" y="204" width="7.8" height="16" fill="#cd00cd"/>
<rect x="328" y="204" width="31.2" height="16" fill="#00cd00"/>
<rect x="445" y="204" width="3.9" height="8" fill="#0000ee"/>
<text x="62.8" y="216.5" textLength="7.8" lengthAdjust="spacingAndGlyphs" xml:space="preserve">│</text>
<text x="257.8" y="216.5" fill="#00cdcd" textLength="70.2" lengthAdjust="spacingAndGlyphs" xml:space="preserve">━━━━━━━━━</text>
<rect x="105.7" y="220" width="3.9" height="16" fill="#cdcd00"/>
<rect x="109.6" y="220" width="7.8" height="16" fill="#cdcd00"/>
<rect x="187.6" y="220" width="31.2" height="16" fill="#00cdcd"/>
<rect x="257.8" y="220" width="3.9" height="16" fill="#00cdcd"/>
<rect x="261.7" y="220" width="3.9" height="8" fill="#00cdcd"/>
<rect x="265.6" y="220" width="3.9" height="16" fill="#00cdcd"/>
<rect x="269.5" y="220" width="3.9" height="8" fill="#00cdcd"/>
<rect x="273.4" y="220" width="3.9" height="16" fill="#00cdcd"/>
<rect x="277.3" y="220" width="3.9" height="8" fill="#00cdcd"/>
<rect x="281.2" y="220" width="7.8" height="8" fill="#00cdcd"/>
<rect x="289" y="220" width="3.9" height="16" fill="#00cdcd"/>
<rect x="292.9" y="220" width="3.9" height="8" fill="#00cdcd"/>
<rect x="296.8" y="220" width="7.8" height="8" fill="#00cdcd"/>
<rect x="304.6" y="220" width="23.4" height="16" fill="#00cdcd"/>
<rect x="328" y="220" width="15.6" height="16" fill="#00cd00"/>
<rect x="343.6" y="220" width="7.8" height="8" fill="#00cd00"/>
<text x="31.6" y="232.5" textLength="39" lengthAdjust="spacingAndGlyphs" xml:space="preserve">190 ┤</text>
<text x="117.4" y="232.5" fill="#00cdcd" textLength="70.2" lengthAdjust="spacingAndGlyphs" xml:space="preserve">━━━━━━━━━</text>
<rect x="105.7" y="236" width="3.9" height="8" fill="#cdcd00"/>
<rect x="109.6" y="236" width="7.8" height="16" fill="#cdcd00"/>
<rect x="117.4" y="236" width="85.8" height="16" fill="#00cdcd"/>
<rect x="203.2" y="236" width="3.9" height="16" fill="#00cdcd"/>
<rect x="207.1" y="236" width="3.9" height="8" fill="#00cdcd"/>
<rect x="211" y="236" width="3.9" height="8" fill="#00cdcd"/>
<rect x="250" y="236" width="7.8" height="8" fill="#cd00cd"/>
<rect x="261.7" y="236" width="3.9" height="8" fill="#cd00cd"/>
<rect x="265.6" y="244" width="3.9" height="8" fill="#cd00cd"/>
<rect x="269.5" y="236" width="3.9" height="8" fill="#cd00cd"/>
<rect x="273.4" y="236" width="3.9" height="8" fill="#cd00cd"/>
<rect x="289" y="236" width="3.9" height="16" fill="#00cdcd"/>
<rect x="304.6" y="236" width="23.4" height="16" fill="#00cd00"/>
<rect x="328" y="236" width="3.9" height="16" fill="#00cd00"/>
<rect x="331.9" y="236" width="3.9" height="8" fill="#00cd00"/>
<rect x="335.8" y="236" width="3.9" height="8" fill="#00cd00"/>
<text x="62.8" y="248.5" textLength="7.8" lengthAdjust="spacingAndGlyphs" xml:space="preserve">│</text>
<rect x="105.7" y="252" width="3.9" height="16" fill="#cdcd00"/>
<rect x="109.6" y="260" width="3.9" height="8" fill="#cdcd00"/>
<rect x="113.5" y="252" width="3.9" height="16" fill="#cdcd00"/>
<rect x="117.4" y="252" width="3.9" height="16" fill="#cdcd00"/>
<rect x="121.3" y="252" width="3.9" height="8" fill="#cdcd00"/>
<rect x="125.2" y="252" width="7.8" height="8" fill="#cdcd00"/>
<rect x="148.6" y="252" width="3.9" height="16" fill="#00cdcd"/>
<rect x="164.2" y="252" width="23.4" height="16" fill="#00cdcd"/>
<rect x="187.6" y="252" width="3.9" height="16" fill="#00cdcd"/>
<rect x="191.5" y="252" width="3.9" height="8" fill="#00cdcd"/>
<rect x="195.4" y="252" width="3.9" height="8" fill="#00cdcd"/>
<rect x="253.9" y="260" width="3.9" height="8" fill="#cd00cd"/>
<rect x="265.6" y="260" width="3.9" height="8" fill="#cd00cd"/>
<rect x="289" y="252" width="3.9" height="16" fill="#00cdcd"/>
<rect x="304.6" y="252" width="7.8" height="16" fill="#00cd00"/>
<rect x="312.4" y="252" width="3.9" height="16" fill="#00cd00"/>
<rect x="316.3" y="252" width="3.9" height="8" fill="#00cd00"/>
<rect x="320.2" y="252" width="3.9" height="8" fill="#00cd00"/>
<text x="62.8" y="264.5" textLength="7.8" lengthAdjust="spacingAndGlyphs" xml:space="preserve">│</text>
<rect x="105.7" y="268" width="3.9" height="8" fill="#cdcd00"/>
<rect x="113.5" y="276" width="3.9" height="8" fill="#cdcd00"/>
<rect x="117.4" y="276" width="3.9" height="8" fill="#cdcd00"/>
<rect x="121.3" y="268" width="3.9" height="8" fill="#cdcd00"/>
<rect x="125.2" y="268" width="7.8" height="8" fill="#cdcd00"/>
<rect x="133" y="268" width="3.9" height="16" fill="#cdcd00"/>
<rect x="148.6" y="268" width="3.9" height="16" fill="#00cdcd"/>
<rect x="164.2" y="268" width="15.6" height="16" fill="#00cdcd"/>
<rect x="179.8" y="268" width="7.8" height="8" fill="#00cdcd"/>
<rect x="269.5" y="276" width="3.9" height="8" fill="#00cdcd"/>
<rect x="273.4" y="276" width="15.6" height="8" fill="#00cdcd"/>
<rect x="289" y="268" width="3.9" height="16" fill="#00cdcd"/>
<rect x="292.9" y="276" width="3.9" height="8" fill="#00cdcd"/>
<rect x="296.8" y="276" width="7.8" height="8" fill="#00cdcd"/>
<rect x="304.6" y="268" width="7.8" height="16" fill="#00cdcd"/>
<rect x="312.4" y="268" width="3.9" height="8" fill="#00cd00"/>
<text x="31.6" y="280.5" textLength="39" lengthAdjust="spacingAndGlyphs" xml:space="preserve">180 ┤</text>
<rect x="109.6" y="292" width="3.9" height="8" fill="#cdcd00"/>
<rect x="113.5" y="284" width="3.9" height="8" fill="#cdcd00"/>
<rect x="129.1" y="292" width="3.9" height="8" fill="#00cdcd"/>
<rect x="133" y="292" width="15.6" height="8" fill="#00cdcd"/>
<rect x="148.6" y="284" width="3.9" height="16" fill="#00cdcd"/>
<rect x="152.5" y="292" width="3.9" height="8" fill="#00cdcd"/>
<rect x="156.4" y="292" width="7.8" height="8" fill="#00cdcd"/>
<rect x="164.2" y="284" width="7.8" height="16" fill="#00cdcd"/>
<rect x="172" y="284" width="3.9" height="8" fill="#00cdcd"/>
<rect x="304.6" y="284" width="7.8" height="16" fill="#00cd00"/>
<text x="62.8" y="296.5" textLength="7.8" lengthAdjust="spacingAndGlyphs" xml:space="preserve">│</text>
<rect x="109.6" y="300" width="3.9" height="8" fill="#cdcd00"/>
<rect x="164.2" y="300" width="7.8" height="16" fill="#00cdcd"/>
<rect x="304.6" y="300" width="3.9" height="16" fill="#00cd00"/>
<text x="31.6" y="312.5" textLength="39" lengthAdjust="spacingAndGlyphs" xml:space="preserve">170 ┤</text>
<rect x="164.2" y="316" width="3.9" height="16" fill="#00cdcd"/>
<text x="62.8" y="328.5" textLength="7.8" lengthAdjust="spacingAndGlyphs" xml:space="preserve">│</text>
<text x="62.8" y="344.5" textLength="468" lengthAdjust="spacingAndGlyphs" xml:space="preserve">└───────────────────────────────────────────────────────────</text>
<text x="133" y="360.5" textLength="327.6" lengthAdjust="spacingAndGlyphs" xml:space="preserve">Adelie           Chinstrap          Gentoo</text>
</svg>
